<?xml version="1.0" standalone="no"?>
<!DOCTYPE svg PUBLIC "-//W3C//DTD SVG 20010904//EN"
 "http://www.w3.org/TR/2001/REC-SVG-20010904/DTD/svg10.dtd">
<svg version="1.0" xmlns="http://www.w3.org/2000/svg"
 width="460.000000pt" height="300.000000pt" viewBox="0 0 460.000000 300.000000"
 preserveAspectRatio="xMidYMid meet">
<metadata>
Created by potrace 1.12, written by Peter Selinger 2001-2015
</metadata>
<g transform="translate(0.000000,300.000000) scale(0.100000,-0.100000)"
fill="#000000" stroke="none">
<path d="M2067 2950 c-16 -5 -34 -13 -41 -19 -21 -18 -108 -41 -154 -41 -48 0
-97 -18 -127 -47 -26 -24 -132 -80 -167 -87 -27 -6 -62 -37 -128 -114 -19 -22
-60 -59 -91 -81 -36 -25 -62 -54 -73 -78 -44 -95 -72 -145 -88 -154 -10 -5
-25 -23 -33 -39 -18 -34 -19 -44 -5 -35 5 3 10 -1 10 -9 0 -9 4 -16 10 -16 5
0 3 -19 -5 -41 -17 -47 -19 -68 -6 -53 5 5 18 38 29 74 34 106 34 108 21 83
-7 -13 -15 -23 -20 -23 -12 0 -4 27 13 47 8 10 23 33 32 51 9 17 19 32 22 32
2 0 0 -9 -6 -20 -6 -11 -8 -20 -4 -20 4 0 -1 -9 -10 -19 -10 -11 -15 -25 -11
-31 6 -9 9 -9 15 0 7 12 23 16 78 19 17 1 22 7 22 26 0 28 -21 42 -42 29 -33
-21 -35 -9 -7 32 17 25 35 42 41 38 7 -4 8 -2 4 4 -4 7 -2 12 3 12 6 0 10 6 8
13 -1 6 4 11 11 10 6 -2 11 0 10 5 -4 11 35 52 49 52 7 0 13 -5 13 -11 0 -5
-5 -7 -12 -3 -7 5 -8 3 -3 -6 7 -11 10 -10 19 1 12 16 58 21 67 7 3 -5 13 -6
23 -2 25 10 17 49 -11 49 -11 0 -24 3 -28 7 -4 4 -14 4 -23 1 -14 -5 -14 -3 2
15 21 24 31 29 21 10 -4 -7 3 -2 16 12 12 14 26 24 31 22 5 -1 7 1 4 6 -2 4
10 17 27 29 40 28 73 41 63 25 -4 -7 2 -8 22 -3 19 6 34 4 47 -5 10 -8 27 -14
37 -14 15 0 18 6 15 28 -3 18 -10 27 -21 26 -10 -1 -16 6 -16 17 0 11 5 19 11
19 5 0 7 -5 3 -11 -4 -7 11 -2 32 10 21 12 63 30 93 40 31 11 48 21 40 25 -8
3 -5 4 6 3 11 -2 19 -9 17 -16 -1 -7 2 -10 8 -6 5 3 10 -1 10 -9 0 -20 17 -29
26 -15 4 8 3 9 -4 5 -7 -4 -12 -2 -12 3 0 16 16 13 30 -4 16 -19 30 -19 30 0
0 14 22 22 115 44 28 6 33 9 15 10 -14 0 -47 -6 -74 -14 -58 -18 -69 -19 -61
-5 3 6 -1 10 -9 10 -8 0 -18 5 -22 11 -4 8 0 9 15 4 11 -3 21 -2 21 3 0 5 12
7 26 4 17 -3 25 -1 21 5 -4 7 10 9 41 6 36 -3 43 -2 32 7 -12 8 -10 10 10 5
14 -3 42 -6 63 -8 25 -3 43 -11 53 -25 22 -32 38 -28 31 8 -4 18 -2 30 4 30 6
0 8 -4 5 -9 -3 -5 1 -12 10 -15 24 -9 31 -7 14 5 -11 8 -3 9 33 6 26 -3 50 0
53 5 3 5 20 6 37 3 18 -4 41 -8 52 -10 11 -2 22 -4 25 -5 3 -1 8 -2 11 -2 3 1
12 -10 19 -23 14 -25 30 -33 30 -15 0 6 -4 10 -8 10 -5 0 -14 11 -20 25 -6 13
-23 27 -37 31 -21 5 -36 24 -19 24 16 0 63 -36 67 -51 3 -12 12 -15 31 -12 15
3 26 1 26 -6 0 -5 6 -8 14 -5 21 8 137 -27 129 -39 -3 -6 -1 -7 6 -3 6 4 14 0
17 -8 3 -9 18 -16 32 -16 26 0 161 -74 199 -109 12 -12 24 -17 28 -12 3 5 -14
24 -37 41 -33 24 -37 30 -18 25 32 -9 58 -32 66 -59 3 -11 29 -44 56 -73 29
-29 47 -56 43 -62 -3 -7 -1 -10 6 -9 7 2 23 -12 36 -31 18 -27 23 -30 23 -14
0 10 -32 55 -72 99 -70 77 -71 78 -16 29 31 -27 56 -56 57 -64 1 -11 4 -11 19
0 16 13 16 13 2 -5 -14 -18 -13 -19 2 -13 9 3 19 1 21 -6 2 -7 8 -9 12 -5 13
12 -24 59 -58 73 -18 8 -54 37 -82 65 -27 29 -61 63 -74 76 -13 13 -31 24 -39
24 -8 0 -37 13 -63 30 -27 16 -65 37 -86 45 -21 9 -48 25 -60 37 -15 14 -43
23 -90 28 -114 14 -147 22 -166 39 -19 16 -28 16 -157 9 -25 -2 -97 0 -160 4
-63 4 -128 3 -143 -2z m128 -19 c14 -6 4 -10 -38 -12 -41 -3 -57 0 -57 9 0 14
63 16 95 3z m260 -11 c-2 -4 -17 -5 -32 -2 -24 5 -25 6 -8 12 22 8 47 2 40
-10z m-365 0 c0 -5 -9 -10 -19 -10 -11 0 -28 -3 -38 -6 -10 -3 -7 2 7 10 29
18 50 20 50 6z m163 -7 c-3 -7 -9 -10 -14 -7 -14 8 -11 21 5 21 8 0 12 -6 9
-14z m21 -39 c3 -8 2 -12 -4 -9 -6 3 -10 10 -10 16 0 14 7 11 14 -7z m-328
-21 c-2 -2 -11 0 -20 3 -14 5 -15 9 -5 15 12 7 34 -10 25 -18z m833 -1 c14
-11 27 -28 28 -38 1 -14 1 -15 -3 -3 -3 9 -26 25 -52 34 -62 23 -77 38 -33 31
19 -2 46 -13 60 -24z m-899 8 c-19 -13 -30 -13 -30 0 0 6 10 10 23 10 18 0 19
-2 7 -10z m-110 -30 c0 -5 -10 -15 -22 -21 -23 -12 -23 -12 -4 10 21 23 26 26
26 11z m-100 -70 c-6 -11 -19 -20 -29 -20 -10 0 -35 -11 -55 -25 l-36 -24 16
24 c9 14 24 25 33 25 9 0 30 9 46 19 38 25 38 25 25 1z m-138 -52 c-15 -15
-16 -32 -2 -23 24 15 7 -6 -22 -26 -17 -13 -28 -16 -23 -8 19 33 47 69 53 69
3 0 1 -5 -6 -12z m-62 -82 c0 -2 -8 -10 -17 -17 -16 -13 -17 -12 -4 4 13 16
21 21 21 13z m0 -59 c30 -4 29 -5 -10 -5 -62 1 -72 -5 -126 -75 -26 -34 -51
-66 -56 -72 -17 -18 15 50 39 82 26 36 105 93 113 82 3 -4 21 -9 40 -12z"/>
<path d="M2183 2863 c9 -2 23 -2 30 0 6 3 -1 5 -18 5 -16 0 -22 -2 -12 -5z"/>
<path d="M1890 2780 c-19 -11 -31 -19 -27 -20 11 0 67 29 67 35 0 7 -1 7 -40
-15z"/>
<path d="M2802 2758 c2 -6 12 -12 22 -14 14 -2 15 0 5 12 -14 17 -32 19 -27 2z"/>
<path d="M1800 2735 c-14 -8 -20 -14 -14 -15 5 0 19 7 30 15 24 18 16 19 -16
0z"/>
<path d="M1536 2632 c-3 -4 4 -9 15 -9 23 -2 25 3 4 10 -8 4 -16 3 -19 -1z"/>
<path d="M3040 2620 c0 -5 7 -10 15 -10 8 0 15 5 15 10 0 6 -7 10 -15 10 -8 0
-15 -4 -15 -10z"/>
<path d="M2910 2581 c-30 -10 -62 -20 -70 -23 -8 -4 -36 -14 -62 -24 -53 -19
-67 -48 -20 -42 15 1 38 8 51 15 24 12 41 9 41 -6 0 -5 -13 -14 -30 -21 -61
-25 -143 -143 -127 -183 3 -6 6 -2 6 11 1 13 5 21 10 18 4 -3 7 -16 6 -28 -1
-13 0 -15 2 -6 2 9 12 20 21 22 15 5 352 56 368 56 3 0 14 -19 24 -42 11 -24
20 -38 20 -31 0 23 -21 66 -51 104 -17 22 -28 39 -25 39 3 0 24 -23 46 -51 22
-28 40 -48 40 -44 0 14 -29 61 -49 79 -11 10 -18 23 -15 28 3 4 2 8 -3 7 -14
-4 -63 24 -57 32 3 5 -3 6 -12 2 -10 -3 -15 -2 -12 3 4 5 -27 9 -73 9 -56 0
-79 3 -79 12 0 11 20 19 103 39 17 4 27 13 27 25 0 22 -7 22 -80 0z m33 -98
c-7 -2 -19 -2 -25 0 -7 3 -2 5 12 5 14 0 19 -2 13 -5z m82 -47 c30 -14 55 -26
55 -28 0 -2 -15 -4 -32 -5 -35 -2 -224 -29 -271 -39 -27 -6 -28 -5 -17 15 6
12 16 18 22 15 7 -4 8 -3 4 4 -7 12 27 35 38 25 3 -3 6 -1 6 5 0 5 12 15 28
20 47 18 109 13 167 -12z m-261 -28 c-16 -18 -32 -37 -36 -42 -5 -6 -8 -7 -8
-3 0 8 60 77 68 77 3 0 -7 -15 -24 -32z m-34 -68 c0 -5 -4 -10 -10 -10 -5 0
-10 5 -10 10 0 6 5 10 10 10 6 0 10 -4 10 -10z"/>
<path d="M1665 2491 c-10 -17 4 -31 31 -31 14 0 23 -4 20 -9 -3 -4 5 -6 17 -4
13 3 60 -3 106 -11 106 -20 111 -20 111 4 0 11 -7 20 -15 20 -8 0 -15 3 -15 8
0 4 -23 8 -52 9 -28 1 -54 5 -57 10 -9 12 -138 16 -146 4z"/>
<path d="M3240 2495 c0 -3 7 -18 16 -33 12 -20 12 -22 1 -9 -16 20 -47 13 -47
-10 0 -12 3 -13 14 -4 11 9 19 3 40 -33 14 -25 26 -49 26 -55 0 -5 5 -13 12
-17 8 -5 9 -2 5 9 -10 27 43 11 72 -21 16 -17 22 -20 18 -9 -3 9 -2 17 3 17 5
0 12 -11 16 -25 4 -14 9 -24 11 -21 11 11 -20 78 -43 93 -23 15 -37 14 -76 -2
-11 -4 -18 -3 -18 5 0 6 5 8 10 5 17 -11 11 8 -20 63 -27 47 -40 62 -40 47z"/>
<path d="M1785 2399 c-53 -13 -105 -50 -142 -102 -40 -56 -46 -76 -29 -92 17
-17 30 -7 15 11 -14 17 9 60 58 104 l38 35 -39 -42 c-24 -26 -36 -47 -33 -57
4 -9 1 -15 -5 -13 -6 1 -12 -3 -14 -8 -3 -8 19 -9 68 -4 40 4 137 10 215 14
l141 7 16 -28 c11 -21 15 -24 16 -11 0 27 -19 59 -31 51 -7 -4 -6 2 1 15 8 16
8 26 1 35 -6 7 -7 16 -3 20 4 4 3 6 -3 4 -5 -1 -26 9 -46 24 -20 16 -59 32
-89 38 -61 12 -80 11 -135 -1z m127 -39 c21 -6 44 -17 51 -25 8 -8 16 -12 18
-10 3 2 15 -5 29 -15 14 -10 23 -21 20 -23 -3 -3 -79 -7 -170 -10 -91 -3 -174
-8 -185 -13 -16 -5 -13 0 10 25 36 39 81 65 101 57 8 -3 12 -2 9 3 -5 9 19 17
60 20 11 0 37 -4 57 -9z m129 -47 c13 -16 12 -17 -3 -4 -10 7 -18 15 -18 17 0
8 8 3 21 -13z m-253 -60 c-10 -2 -26 -2 -35 0 -10 3 -2 5 17 5 19 0 27 -2 18
-5z"/>
<path d="M3312 2324 c-14 -15 -7 -37 11 -31 12 4 19 35 9 41 -4 2 -13 -2 -20
-10z"/>
<path d="M1251 2296 c-22 -23 -22 -24 -3 -19 11 2 22 13 25 24 7 24 5 24 -22
-5z"/>
<path d="M3172 2280 c0 -14 2 -19 5 -12 2 6 2 18 0 25 -3 6 -5 1 -5 -13z"/>
<path d="M2070 2285 c0 -3 7 -16 16 -30 10 -16 14 -38 11 -67 -2 -24 -2 -33 0
-20 2 12 9 20 14 17 13 -9 11 4 -8 58 -9 26 -21 47 -25 47 -4 0 -8 -2 -8 -5z"/>
<path d="M2895 2270 c-4 -6 7 -10 25 -10 18 0 29 4 25 10 -3 6 -15 10 -25 10
-10 0 -22 -4 -25 -10z"/>
<path d="M2463 2263 c-7 -3 -13 -9 -13 -15 0 -10 42 -64 82 -105 l22 -23 -32
-33 c-31 -32 -43 -67 -22 -67 14 0 79 72 80 88 0 7 -3 11 -8 8 -4 -2 -13 7
-19 21 -12 25 -12 25 7 8 18 -16 19 -16 17 4 0 11 -3 18 -5 16 -6 -5 -58 57
-55 66 1 4 -4 13 -12 19 -8 7 -15 9 -15 4 0 -5 -4 -4 -8 2 -4 6 -13 9 -19 7z
m33 -45 l29 -33 -32 29 c-31 28 -38 36 -30 36 2 0 16 -15 33 -32z m64 -121 c0
-2 -10 -12 -22 -23 l-23 -19 19 23 c18 21 26 27 26 19z"/>
<path d="M2890 2238 c0 -17 32 -21 46 -6 13 13 11 15 -16 15 -16 0 -30 -4 -30
-9z"/>
<path d="M3172 2230 c0 -14 2 -19 5 -12 2 6 2 18 0 25 -3 6 -5 1 -5 -13z"/>
<path d="M3420 2241 c0 -8 -7 -11 -15 -7 -9 3 -15 0 -15 -8 0 -7 -7 -19 -16
-27 -13 -10 -17 -10 -24 1 -4 7 -6 19 -3 27 3 7 1 13 -5 13 -5 0 -12 -7 -16
-15 -3 -8 -1 -15 3 -15 17 0 20 -28 5 -47 -13 -17 -14 -16 -8 12 4 17 3 27 -2
22 -5 -5 -9 -12 -10 -15 -2 -13 -16 -47 -46 -114 -23 -49 -35 -65 -47 -61 -12
4 -13 2 -3 -4 22 -16 -101 -183 -136 -186 -13 -1 -18 -7 -14 -19 2 -10 -1 -18
-7 -18 -6 0 -25 -16 -42 -35 -18 -19 -37 -32 -43 -28 -6 3 -8 3 -4 -2 9 -10
-39 -48 -51 -40 -6 3 -15 -4 -21 -15 -10 -19 -170 -107 -170 -94 0 4 -7 1 -15
-6 -8 -6 -20 -8 -26 -4 -7 4 -9 3 -5 -4 6 -10 -95 -38 -252 -68 -80 -15 -352
-19 -352 -5 0 4 -28 14 -62 21 -35 7 -85 22 -113 32 -59 23 -52 11 8 -14 23
-9 36 -17 29 -17 -7 -1 -10 -5 -7 -11 3 -5 1 -10 -4 -10 -6 0 -11 5 -11 11 0
7 -10 9 -25 7 -13 -3 -22 -2 -20 2 3 4 -11 11 -31 14 -19 4 -43 10 -51 13 -10
4 -14 2 -10 -4 9 -14 -48 -2 -89 20 -17 9 -34 13 -38 10 -3 -4 -6 -1 -6 5 0 7
-3 11 -7 11 -23 -4 -43 3 -59 19 -10 9 -19 16 -21 15 -10 -8 -23 -1 -17 9 4 7
3 8 -5 4 -12 -8 -34 9 -44 34 -3 8 -6 10 -6 3 -1 -6 -10 -9 -21 -6 -11 3 -17
9 -14 14 3 5 -1 6 -8 4 -8 -3 -23 4 -35 15 -12 11 -26 20 -31 20 -6 0 -17 11
-26 25 -9 14 -21 23 -26 20 -5 -3 -12 0 -16 6 -5 8 -3 9 6 4 9 -5 11 -4 6 4
-4 6 -11 9 -15 7 -11 -7 -73 59 -64 68 5 4 3 6 -2 4 -6 -2 -11 1 -12 5 -1 5
-10 15 -20 22 -17 12 -17 14 -1 32 14 15 14 21 4 36 -7 9 -16 17 -20 17 -10 0
-36 -27 -31 -31 2 -2 -7 -4 -20 -4 -13 0 -21 3 -19 6 2 4 -3 9 -11 13 -8 3
-15 1 -15 -5 0 -6 -5 -7 -10 -4 -6 4 -8 11 -4 16 3 5 0 8 -8 7 -7 -2 -12 5
-11 16 1 13 -2 15 -10 7 -9 -9 -8 -17 1 -31 7 -11 8 -20 3 -20 -6 0 -15 17
-20 38 -12 42 -14 68 -5 59 4 -3 15 5 26 18 11 14 24 23 29 19 6 -3 16 -1 23
5 11 9 18 8 30 -4 9 -9 16 -22 16 -28 0 -8 -3 -9 -8 -1 -4 5 -20 10 -37 10
-52 -1 -44 -58 10 -68 11 -1 25 -9 30 -16 9 -11 13 -9 22 11 10 21 9 26 -5 32
-16 6 -16 7 1 20 36 26 22 87 -18 71 -9 -3 -15 0 -15 10 0 24 -60 8 -87 -22
-45 -49 -42 -122 6 -173 23 -25 37 -31 69 -31 27 0 42 -5 46 -16 3 -8 11 -12
17 -8 7 4 9 3 5 -4 -19 -31 165 -188 314 -265 74 -39 252 -104 332 -121 l26
-6 -20 -41 c-19 -40 -17 -68 3 -39 8 11 9 9 4 -9 -9 -30 12 -25 34 9 10 14 11
21 4 16 -7 -4 -13 -2 -13 3 0 6 7 11 15 11 8 0 15 5 15 11 0 5 -6 7 -12 3 -7
-4 -9 -3 -5 1 4 5 13 10 20 11 7 1 25 5 41 9 21 6 27 5 22 -4 -5 -7 1 -11 17
-11 31 0 90 -24 80 -33 -3 -4 -1 -7 5 -7 6 0 10 -9 9 -21 -1 -15 -6 -19 -22
-14 -19 6 -55 9 -81 6 -7 -1 -14 -8 -17 -16 -5 -12 -2 -12 18 -3 30 14 95 2
95 -17 0 -8 3 -14 8 -14 20 3 32 -2 26 -13 -4 -7 -3 -8 4 -4 7 4 12 2 12 -3 0
-6 3 -10 8 -9 16 3 41 -15 35 -26 -3 -6 -3 -8 2 -4 4 4 15 3 22 -4 11 -9 16
-9 23 2 10 16 4 30 -11 30 -6 0 -7 -6 -3 -12 5 -9 2 -9 -9 1 -9 7 -17 16 -17
19 0 3 3 3 6 0 3 -4 25 2 49 13 27 12 55 17 76 13 19 -3 44 -5 55 -5 12 0 33
-11 48 -26 14 -14 26 -21 26 -14 0 6 8 3 18 -7 14 -13 15 -19 5 -25 -15 -9
-17 -36 -3 -57 7 -12 12 -12 22 -2 9 9 9 12 -1 12 -7 0 -9 5 -6 10 4 6 10 8
15 5 4 -3 6 4 3 14 -6 24 16 31 100 35 59 2 64 5 59 35 -2 11 -52 1 -52 -10 0
-5 -4 -9 -10 -9 -5 0 -6 8 -3 17 5 13 2 15 -11 10 -10 -4 -29 -7 -43 -7 -18 0
-24 -4 -20 -14 3 -8 -1 -17 -8 -20 -11 -4 -12 0 -5 20 12 31 12 37 1 30 -12
-8 -29 16 -26 37 2 9 -1 15 -6 11 -5 -3 -9 0 -9 5 0 6 3 11 8 11 4 0 8 19 8
43 1 23 -1 34 -5 25 -5 -15 -8 -13 -18 7 -6 15 -7 27 -2 31 5 3 9 -2 9 -10 0
-12 6 -13 32 -6 21 7 36 6 45 -1 9 -8 13 -8 13 -1 0 6 -5 14 -10 17 -12 7 -4
25 11 25 6 0 7 -5 4 -10 -4 -6 -1 -17 5 -25 6 -8 9 -24 6 -37 -3 -13 -3 -17 0
-10 3 6 10 9 15 6 6 -3 5 -11 -2 -20 -6 -8 -9 -17 -5 -21 3 -3 6 -1 6 6 0 7 5
9 11 5 14 -8 2 54 -13 74 -6 6 -7 13 -2 13 51 7 64 6 64 -2 0 -6 5 -7 10 -4 6
3 10 2 10 -4 0 -5 9 -12 20 -16 11 -3 19 -11 17 -18 -1 -6 4 -11 11 -12 15 0
33 -26 26 -37 -3 -5 0 -7 6 -6 7 2 24 -21 39 -49 27 -56 38 -63 48 -37 9 24
-29 93 -86 156 -28 31 -51 58 -51 61 0 2 28 14 63 27 79 29 133 60 229 133 94
71 159 142 151 165 -4 13 -3 14 5 4 7 -11 14 -9 31 10 38 40 91 126 131 211
30 63 46 85 68 95 20 9 36 26 47 54 8 22 13 43 10 46 -3 3 -5 0 -5 -7z m-29
-54 l-24 -22 19 27 c10 14 21 24 23 22 3 -3 -6 -15 -18 -27z m-102 -127 c-21
-44 -41 -80 -43 -80 -3 0 12 36 31 80 20 44 40 80 43 80 4 0 -10 -36 -31 -80z
m-2231 -10 c-7 -10 -14 -17 -17 -15 -4 4 18 35 25 35 2 0 -1 -9 -8 -20z m69
-66 c-3 -3 -12 -4 -19 -1 -8 3 -5 6 6 6 11 1 17 -2 13 -5z m63 -100 c0 -8 -4
-12 -10 -9 -5 3 -10 10 -10 16 0 5 5 9 10 9 6 0 10 -7 10 -16z m66 -96 l29
-33 -32 29 c-31 28 -38 36 -30 36 2 0 16 -15 33 -32z m55 -55 c13 -16 12 -17
-3 -4 -17 13 -22 21 -14 21 2 0 10 -8 17 -17z m1699 -27 c0 -3 -15 -14 -32
-26 l-33 -22 30 26 c31 27 35 29 35 22z m-355 -196 c-3 -5 -14 -10 -23 -9 -14
0 -13 2 3 9 27 11 27 11 20 0z m-662 -17 c-7 -2 -19 -2 -25 0 -7 3 -2 5 12 5
14 0 19 -2 13 -5z m37 -13 c-8 -5 -19 -10 -25 -10 -5 0 -3 5 5 10 8 5 20 10
25 10 6 0 3 -5 -5 -10z m-120 -20 c-20 -13 -33 -13 -25 0 3 6 14 10 23 10 15
0 15 -2 2 -10z m810 -15 c13 -14 21 -25 18 -25 -2 0 -15 11 -28 25 -13 14 -21
25 -18 25 2 0 15 -11 28 -25z m-640 -7 c0 -9 17 -13 50 -14 32 -1 57 -7 69
-18 18 -16 20 -16 29 0 6 11 11 13 16 5 4 -6 2 -11 -3 -11 -6 0 -11 -7 -11
-15 0 -8 5 -15 11 -15 5 0 8 4 5 9 -3 5 25 11 63 15 64 7 141 23 114 25 -18 1
-16 18 2 18 20 0 41 -65 26 -80 -8 -8 -11 -8 -11 2 0 7 -7 10 -17 7 -10 -3
-55 -6 -101 -8 -66 -2 -82 -6 -81 -18 2 -28 -1 -33 -15 -21 -11 9 -17 8 -30
-4 -8 -9 -19 -17 -23 -18 -4 -1 -7 -6 -5 -10 1 -5 -2 -6 -8 -2 -6 3 -8 10 -5
15 3 4 -3 14 -12 21 -15 12 -16 12 -10 -5 6 -16 5 -17 -8 -6 -8 7 -15 19 -15
27 0 23 -38 91 -57 102 -16 9 -16 10 5 11 12 0 22 -6 22 -12z m53 5 c-7 -2
-19 -2 -25 0 -7 3 -2 5 12 5 14 0 19 -2 13 -5z m120 0 c-7 -2 -19 -2 -25 0 -7
3 -2 5 12 5 14 0 19 -2 13 -5z m-40 -23 c3 -11 3 -20 1 -20 -2 0 -8 9 -14 20
-6 11 -7 20 -2 20 6 0 12 -9 15 -20z m120 3 c-7 -2 -21 -2 -30 0 -10 3 -4 5
12 5 17 0 24 -2 18 -5z m-460 -18 c-3 -9 -8 -14 -10 -11 -3 3 -2 9 2 15 9 16
15 13 8 -4z m440 -2 c-7 -2 -21 -2 -30 0 -10 3 -4 5 12 5 17 0 24 -2 18 -5z
m452 -13 c10 -11 16 -20 13 -20 -3 0 -13 9 -23 20 -10 11 -16 20 -13 20 3 0
13 -9 23 -20z m40 -61 c9 -17 15 -34 13 -39 -2 -5 -11 9 -20 30 -20 47 -15 53
7 9z m-435 11 c0 -5 -12 -10 -27 -9 -25 0 -26 1 -8 9 27 12 35 12 35 0z m99
-54 c20 -22 21 -24 4 -30 -9 -4 -14 -4 -10 0 4 4 0 18 -8 31 -20 30 -14 29 14
-1z"/>
<path d="M2095 1410 c3 -5 8 -10 11 -10 2 0 4 5 4 10 0 6 -5 10 -11 10 -5 0
-7 -4 -4 -10z"/>
<path d="M2112 1376 c7 -8 17 -12 22 -9 4 3 2 9 -5 14 -22 13 -31 11 -17 -5z"/>
<path d="M2711 2214 c0 -11 3 -14 6 -6 3 7 2 16 -1 19 -3 4 -6 -2 -5 -13z"/>
<path d="M2698 2176 c2 -16 13 -43 23 -59 10 -17 15 -35 12 -40 -3 -6 -1 -7 5
-3 6 3 14 1 19 -6 29 -46 177 -83 241 -60 23 8 32 7 36 -1 2 -7 5 -4 5 6 1 9
5 17 9 17 4 0 26 17 49 38 38 35 73 94 73 124 0 7 -9 -5 -19 -27 -10 -22 -25
-46 -34 -53 -11 -9 -7 3 10 38 14 28 23 53 20 56 -3 3 -8 -3 -11 -13 -5 -17
-29 -21 -196 -39 l-190 -19 -11 28 c-7 16 -17 26 -25 23 -7 -3 -15 0 -17 7 -2
7 -2 -1 1 -17z m25 -16 c3 -11 1 -18 -4 -14 -5 3 -9 12 -9 20 0 20 7 17 13 -6z
m41 -59 c-2 -3 -12 3 -22 13 -16 17 -16 18 5 5 12 -7 20 -15 17 -18z m320 8
c-25 -28 -86 -58 -110 -55 -10 2 -22 -1 -25 -7 -10 -15 -109 14 -110 32 0 11
-2 12 -6 4 -3 -10 -10 -10 -25 -2 -11 6 -17 14 -13 17 4 4 62 12 131 17 68 6
136 11 151 13 26 2 26 2 7 -19z m-293 -36 c13 -16 12 -17 -3 -4 -17 13 -22 21
-14 21 2 0 10 -8 17 -17z"/>
<path d="M1590 2184 c0 -8 5 -12 10 -9 6 3 10 10 10 16 0 5 -4 9 -10 9 -5 0
-10 -7 -10 -16z"/>
<path d="M1140 2170 c0 -5 5 -10 10 -10 6 0 10 5 10 10 0 6 -4 10 -10 10 -5 0
-10 -4 -10 -10z"/>
<path d="M1610 2170 c0 -5 5 -10 10 -10 6 0 10 5 10 10 0 6 -4 10 -10 10 -5 0
-10 -4 -10 -10z"/>
<path d="M1827 2174 c-13 -14 -7 -21 18 -21 15 0 24 4 22 11 -4 13 -30 20 -40
10z"/>
<path d="M1130 2134 c0 -8 5 -12 10 -9 6 3 10 10 10 16 0 5 -4 9 -10 9 -5 0
-10 -7 -10 -16z"/>
<path d="M1825 2124 c9 -7 23 -10 31 -7 24 9 15 20 -17 20 -28 0 -30 -2 -14
-13z"/>
<path d="M1155 2110 c-3 -5 -1 -10 4 -10 6 0 11 5 11 10 0 6 -2 10 -4 10 -3 0
-8 -4 -11 -10z"/>
<path d="M1615 2090 c9 -41 33 -92 49 -102 6 -4 7 -10 4 -14 -4 -4 -15 8 -25
25 -10 18 -23 40 -30 49 -10 14 -11 13 -10 -11 1 -15 8 -29 16 -32 11 -4 11
-8 0 -22 -10 -12 -10 -14 -1 -9 20 12 35 -4 20 -22 -11 -15 -11 -15 3 -4 13
10 18 10 27 0 6 -7 11 -16 11 -20 1 -5 4 -9 9 -10 4 -1 28 -14 53 -28 40 -24
55 -27 115 -25 90 4 105 7 128 25 67 52 92 81 113 128 33 75 28 86 -7 15 -17
-33 -40 -68 -52 -79 -17 -15 -16 -12 5 17 29 39 34 59 15 60 -7 0 -3 4 10 9
38 16 25 28 -20 20 -24 -5 -90 -14 -148 -20 -58 -6 -133 -16 -168 -22 -47 -8
-66 -7 -77 2 -8 7 -12 16 -9 21 3 5 1 9 -4 9 -5 0 -9 6 -10 13 -2 26 -8 47
-16 54 -5 4 -5 -8 -1 -27z m424 -97 c-26 -32 -54 -52 -67 -48 -7 3 -11 1 -8
-4 3 -5 -1 -12 -10 -15 -10 -4 -13 -2 -8 7 4 6 -2 4 -13 -6 -15 -13 -35 -18
-69 -16 -75 2 -94 8 -86 27 5 15 3 15 -10 4 -14 -11 -21 -11 -43 4 -41 27 -12
35 175 50 35 2 66 7 69 9 2 3 22 5 44 5 36 0 38 -1 26 -17z"/>
<path d="M2091 2104 c0 -11 3 -14 6 -6 3 7 2 16 -1 19 -3 4 -6 -2 -5 -13z"/>
<path d="M1590 2086 c0 -9 5 -16 10 -16 6 0 10 4 10 9 0 6 -4 13 -10 16 -5 3
-10 -1 -10 -9z"/>
<path d="M2130 2080 c0 -5 5 -10 11 -10 5 0 7 5 4 10 -3 6 -8 10 -11 10 -2 0
-4 -4 -4 -10z"/>
<path d="M2540 1936 c0 -8 10 -22 22 -31 22 -15 20 -15 -44 -14 -49 1 -77 -4
-105 -18 -46 -24 -57 -53 -19 -53 14 0 26 5 26 11 0 6 7 9 15 6 8 -4 16 -3 19
1 3 4 21 9 41 10 33 3 35 1 29 -23 -5 -19 -2 -25 11 -25 11 0 15 5 12 15 -4 8
-1 17 5 21 7 5 8 2 3 -7 -5 -8 1 -6 13 5 12 10 28 16 37 13 27 -11 30 39 4 70
-27 32 -69 43 -69 19z"/>
<path d="M1790 1574 c0 -7 52 -25 57 -20 2 2 -10 8 -26 14 -17 6 -31 9 -31 6z"/>
<path d="M2596 1355 c4 -8 8 -15 10 -15 2 0 4 7 4 15 0 8 -4 15 -10 15 -5 0
-7 -7 -4 -15z"/>
<path d="M1825 1341 c-3 -5 -1 -12 5 -16 5 -3 10 1 10 9 0 18 -6 21 -15 7z"/>
<path d="M1844 1319 c-3 -6 -1 -16 5 -22 8 -8 11 -5 11 11 0 24 -5 28 -16 11z"/>
<path d="M1822 1290 c0 -14 2 -19 5 -12 2 6 2 18 0 25 -3 6 -5 1 -5 -13z"/>
<path d="M1842 1260 c0 -14 2 -19 5 -12 2 6 2 18 0 25 -3 6 -5 1 -5 -13z"/>
<path d="M2831 1254 c0 -11 3 -14 6 -6 3 7 2 16 -1 19 -3 4 -6 -2 -5 -13z"/>
<path d="M2812 1240 c0 -14 2 -19 5 -12 2 6 2 18 0 25 -3 6 -5 1 -5 -13z"/>
<path d="M1812 1205 c0 -16 2 -22 5 -12 2 9 2 23 0 30 -3 6 -5 -1 -5 -18z"/>
<path d="M1985 1205 c18 -32 72 -85 86 -85 5 0 9 -6 9 -13 0 -8 6 -14 13 -14
6 0 35 -6 62 -13 85 -21 82 -20 63 -31 -21 -12 -158 -7 -150 5 3 5 -5 7 -16 4
-12 -4 -20 -2 -17 2 3 5 -4 11 -15 15 -11 3 -28 17 -39 31 -11 14 -22 20 -25
15 -3 -5 5 -18 20 -28 23 -17 23 -19 5 -19 -11 0 -18 2 -16 5 3 2 -1 11 -7 19
-16 19 -19 42 -5 42 5 0 7 3 4 6 -4 4 -21 -8 -39 -25 l-33 -32 27 5 c20 3 25
1 21 -10 -3 -8 -10 -11 -16 -7 -6 4 -7 1 -3 -6 5 -7 14 -10 21 -7 7 2 16 -2
19 -10 3 -9 11 -12 17 -8 8 4 9 3 5 -4 -14 -24 -122 -10 -129 17 -3 9 -5 3 -6
-12 0 -16 -5 -26 -11 -22 -5 3 -10 0 -10 -8 0 -8 8 -18 18 -22 25 -11 162 -22
162 -13 0 10 42 22 65 19 10 -2 24 -10 31 -19 7 -10 16 -12 25 -7 11 7 11 5
-1 -11 -8 -10 -11 -16 -6 -12 4 4 18 3 30 -1 14 -6 33 -3 55 8 37 17 57 46 24
34 -16 -6 -16 -5 -4 11 11 13 16 14 22 4 6 -10 15 -10 43 0 51 19 75 22 81 11
4 -5 11 -7 16 -4 12 8 51 -4 45 -14 -3 -4 3 -8 12 -9 9 -1 53 -6 97 -13 135
-19 235 22 279 115 18 38 22 71 6 46 -8 -12 -10 -10 -10 10 -1 24 -2 24 -10 4
-5 -12 -14 -25 -21 -30 -7 -4 -10 -3 -5 4 4 6 -16 -4 -43 -23 -58 -38 -109
-50 -189 -41 -38 4 -50 3 -37 -3 32 -15 139 -12 178 4 31 13 36 13 41 -1 3 -8
2 -13 -2 -10 -5 3 -28 -2 -52 -10 -28 -10 -74 -14 -132 -13 -48 2 -88 4 -88 5
0 1 7 10 16 18 13 14 13 16 1 16 -9 0 -18 -6 -21 -12 -3 -7 -3 -2 0 12 5 23 4
24 -9 8 -8 -10 -24 -18 -36 -18 -18 0 -20 2 -9 14 8 8 15 10 19 4 4 -6 8 -6
11 -2 4 8 4 17 -1 41 0 3 -13 -4 -28 -18 -19 -16 -22 -17 -12 -4 24 29 61 106
55 113 -3 3 -6 0 -6 -6 0 -7 -8 -12 -17 -13 -10 0 -13 -3 -6 -5 7 -3 9 -12 6
-20 -3 -7 -9 -11 -15 -8 -11 7 -59 -35 -53 -47 3 -4 1 -10 -5 -14 -6 -4 -7
-11 -4 -17 4 -7 2 -8 -5 -4 -6 4 -8 12 -5 18 5 8 1 9 -11 4 -40 -15 -106 -18
-152 -7 -43 11 -143 72 -151 92 -2 5 -13 19 -24 31 l-20 23 17 -30z m415 -59
c0 -2 -7 -7 -16 -10 -8 -3 -12 -2 -9 4 6 10 25 14 25 6z m390 -65 c-20 -30
-40 -44 -23 -18 27 42 38 56 41 52 2 -2 -6 -18 -18 -34z m-490 -6 c0 -10 -45
-23 -55 -17 -5 4 4 10 20 13 17 4 31 7 33 8 1 0 2 -1 2 -4z m60 -15 c0 -5 -8
-10 -17 -10 -15 0 -16 2 -3 10 19 12 20 12 20 0z m378 -30 c-7 -11 -17 -20
-23 -20 -5 0 -21 -3 -35 -6 -20 -5 9 14 68 45 1 0 -3 -8 -10 -19z m-308 0 c0
-5 -2 -10 -4 -10 -3 0 -8 5 -11 10 -3 6 -1 10 4 10 6 0 11 -4 11 -10z m-379
-9 c-8 -5 -20 -7 -28 -4 -21 8 -15 13 15 13 20 0 23 -3 13 -9z m62 -15 c14
-11 15 -15 4 -19 -7 -3 -19 4 -25 14 -14 22 -5 24 21 5z m490 7 c-7 -2 -19 -2
-25 0 -7 3 -2 5 12 5 14 0 19 -2 13 -5z m-676 -19 c-3 -3 -12 -4 -19 -1 -8 3
-5 6 6 6 11 1 17 -2 13 -5z m626 -1 c-7 -2 -21 -2 -30 0 -10 3 -4 5 12 5 17 0
24 -2 18 -5z m90 0 c-7 -2 -19 -2 -25 0 -7 3 -2 5 12 5 14 0 19 -2 13 -5z
m-466 -9 c-3 -3 -12 -4 -19 -1 -8 3 -5 6 6 6 11 1 17 -2 13 -5z"/>
<path d="M2811 1194 c0 -11 3 -14 6 -6 3 7 2 16 -1 19 -3 4 -6 -2 -5 -13z"/>
<path d="M2831 1174 c0 -11 3 -14 6 -6 3 7 2 16 -1 19 -3 4 -6 -2 -5 -13z"/>
<path d="M2431 1158 c-9 -24 -7 -31 15 -53 32 -32 45 -33 15 -1 -16 17 -19 25
-9 28 10 4 10 10 1 29 l-11 24 -11 -27z"/>
<path d="M1811 1114 c0 -11 3 -14 6 -6 3 7 2 16 -1 19 -3 4 -6 -2 -5 -13z"/>
<path d="M1811 1080 c-1 -8 -4 -26 -7 -40 -5 -22 -4 -23 6 -7 6 10 9 28 7 40
-2 12 -5 15 -6 7z"/>
<path d="M1792 990 c0 -14 2 -19 5 -12 2 6 2 18 0 25 -3 6 -5 1 -5 -13z"/>
<path d="M2734 969 c-3 -6 -1 -16 5 -22 8 -8 11 -5 11 11 0 24 -5 28 -16 11z"/>
<path d="M1781 834 c0 -11 3 -14 6 -6 3 7 2 16 -1 19 -3 4 -6 -2 -5 -13z"/>
<path d="M2736 801 c-4 -7 -5 -15 -2 -18 9 -9 19 4 14 18 -4 11 -6 11 -12 0z"/>
<path d="M1791 754 c0 -11 3 -14 6 -6 3 7 2 16 -1 19 -3 4 -6 -2 -5 -13z"/>
<path d="M2726 745 c-3 -8 -1 -15 4 -15 6 0 10 7 10 15 0 8 -2 15 -4 15 -2 0
-6 -7 -10 -15z"/>
<path d="M1801 724 c-1 -15 40 -147 49 -157 4 -5 10 1 13 12 3 12 1 19 -3 16
-5 -3 -20 28 -33 67 -14 40 -26 68 -26 62z"/>
<path d="M2715 711 c-3 -6 -4 -11 0 -11 3 0 -4 -18 -15 -40 -11 -21 -20 -50
-19 -62 0 -14 3 -17 6 -8 2 8 14 39 25 68 18 47 21 80 3 53z"/>
<path d="M2676 665 c-9 -26 -7 -32 5 -12 6 10 9 21 6 23 -2 3 -7 -2 -11 -11z"/>
<path d="M1850 620 c0 -5 5 -10 11 -10 5 0 7 5 4 10 -3 6 -8 10 -11 10 -2 0
-4 -4 -4 -10z"/>
<path d="M2348 594 c-29 -15 -35 -28 -18 -39 11 -7 55 14 47 22 -3 2 -16 -1
-29 -7 -13 -7 -19 -8 -13 -2 6 6 24 18 40 26 17 9 23 16 15 16 -8 -1 -27 -8
-42 -16z"/>
<path d="M2683 515 c0 -22 2 -30 4 -17 2 12 2 30 0 40 -3 9 -5 -1 -4 -23z"/>
<path d="M1852 425 c0 -16 2 -22 5 -12 2 9 2 23 0 30 -3 6 -5 -1 -5 -18z"/>
<path d="M1841 354 c0 -11 3 -14 6 -6 3 7 2 16 -1 19 -3 4 -6 -2 -5 -13z"/>
<path d="M2659 356 c-3 -3 -26 -6 -52 -7 -26 -2 -47 -6 -47 -9 0 -6 -33 -14
-146 -40 -33 -7 -52 -5 -93 11 -68 25 -96 24 -200 -8 -93 -29 -200 -35 -239
-14 -17 9 -27 9 -40 1 -13 -9 -13 -10 -1 -7 9 3 22 1 30 -4 10 -6 7 -9 -13 -9
-33 0 -48 -35 -24 -56 9 -8 14 -11 11 -8 -10 15 15 41 37 38 13 -1 23 -3 23
-4 0 -1 9 -3 20 -5 80 -12 100 -13 105 -7 3 5 46 20 95 35 120 35 169 32 232
-17 58 -45 72 -36 18 11 -22 20 -32 30 -22 23 9 -7 20 -10 24 -6 3 3 11 -3 17
-13 6 -10 17 -29 24 -41 8 -12 9 -19 3 -16 -6 4 -11 0 -11 -9 0 -11 5 -15 14
-12 10 4 12 0 8 -16 -5 -21 -4 -21 16 2 l22 24 -26 26 -27 26 27 3 c14 2 24 7
21 12 -3 4 4 6 15 3 11 -3 17 -10 13 -17 -5 -9 8 0 47 33 3 2 -4 1 -15 -3 -12
-4 -16 -4 -10 2 16 14 89 32 131 32 40 0 104 -31 104 -50 0 -6 5 -8 10 -5 6 3
10 -3 10 -15 0 -12 4 -19 9 -16 5 4 11 1 13 -6 6 -16 28 -1 28 19 0 21 -80 98
-109 106 -17 4 -21 2 -17 -8 3 -9 0 -12 -10 -8 -8 3 -13 12 -10 19 5 13 -5 19
-15 10z m-2 -22 c-3 -3 -12 -4 -19 -1 -8 3 -5 6 6 6 11 1 17 -2 13 -5z"/>
<path d="M1369 258 c-17 -34 -41 -58 -50 -52 -5 3 0 15 12 27 19 20 19 22 3
26 -19 3 -47 -26 -38 -40 3 -5 2 -9 -3 -9 -10 0 -43 -57 -43 -76 0 -8 7 -14
16 -14 10 0 14 6 10 15 -6 16 2 19 21 7 7 -5 9 -13 3 -21 -9 -15 -3 -41 10
-41 8 0 25 49 21 63 -1 5 2 6 7 3 4 -2 28 -7 54 -10 35 -4 47 -2 52 9 8 22 26
18 26 -5 0 -23 0 -23 34 -11 17 7 26 7 30 -2 3 -9 7 -8 15 3 6 9 11 10 11 3 0
-7 25 -11 75 -11 41 0 79 -3 84 -6 16 -10 39 5 36 22 -2 9 -4 23 -4 30 -1 18
-39 15 -50 -5 -8 -14 -13 -15 -35 -5 -14 6 -26 19 -26 27 0 10 -5 13 -12 9 -7
-5 -8 -3 -2 7 29 47 5 50 -30 4 -15 -19 -32 -35 -38 -35 -7 0 -6 5 2 15 11 13
6 15 -35 15 -63 0 -51 11 21 19 36 4 59 11 62 20 4 12 -9 13 -74 8 -98 -8
-124 -15 -118 -32 7 -18 -19 -25 -33 -10 -10 10 -9 16 2 25 17 14 20 50 5 50
-5 0 -15 -10 -21 -22z m20 -90 c14 -19 5 -23 -18 -9 -7 5 -10 14 -6 21 4 6 8
10 9 8 1 -2 8 -11 15 -20z m128 -10 c-3 -8 -6 -5 -6 6 -1 11 2 17 5 13 3 -3 4
-12 1 -19z m117 7 c3 -8 2 -14 -2 -14 -4 1 -9 0 -12 -1 -22 -8 -41 -7 -37 3 2
7 9 12 15 12 5 0 14 3 18 8 10 10 11 9 18 -8z m-204 -5 c0 -5 -5 -10 -11 -10
-5 0 -7 5 -4 10 3 6 8 10 11 10 2 0 4 -4 4 -10z m300 -21 c0 -6 -4 -7 -10 -4
-5 3 -10 11 -10 16 0 6 5 7 10 4 6 -3 10 -11 10 -16z"/>
<path d="M1072 240 c-18 -11 -44 -20 -57 -20 -34 0 -105 -29 -132 -53 -17 -15
-21 -28 -19 -60 2 -21 10 -43 17 -48 36 -23 152 2 194 41 14 13 30 18 52 15
21 -2 33 1 37 10 3 8 12 12 21 9 17 -7 20 7 4 23 -8 8 -8 13 0 17 6 4 11 0 11
-11 0 -15 2 -16 11 -3 8 12 9 10 4 -7 -4 -14 -2 -23 4 -23 6 0 10 21 10 51 -1
36 -5 49 -14 45 -8 -3 -16 1 -19 9 -7 20 -46 6 -57 -21 -10 -27 -21 -30 -38
-10 -9 10 -8 15 4 20 15 5 22 36 8 36 -5 0 -23 -9 -41 -20z m95 -17 c-4 -3 -1
-13 6 -22 11 -14 10 -14 -5 -2 -16 12 -16 31 -1 31 4 0 3 -3 0 -7z m-172 -34
c-5 -7 7 -8 39 -4 38 6 47 4 52 -9 4 -11 -2 -26 -15 -40 -12 -12 -19 -25 -15
-28 3 -3 -1 -5 -8 -5 -7 1 -39 -7 -70 -17 -55 -19 -58 -19 -77 -2 -31 28 -13
55 63 98 37 21 39 21 31 7z"/>
<path d="M2821 183 c0 -17 -6 -35 -13 -39 -7 -4 -8 -3 -4 4 9 16 0 15 -53 -4
-47 -16 -257 -19 -266 -3 -7 10 -35 1 -35 -11 0 -5 8 -11 18 -13 13 -4 12 -5
-5 -6 -12 0 -23 5 -26 12 -3 9 -8 8 -18 -4 -28 -33 -89 -44 -245 -44 -113 0
-155 3 -167 14 -9 7 -26 11 -37 8 -11 -3 -18 -2 -15 3 3 4 -10 11 -28 14 -18
3 -45 17 -60 31 -23 22 -27 23 -27 8 0 -15 -2 -16 -10 -3 -14 21 -13 -5 0 -31
46 -85 433 -120 589 -52 26 11 74 16 171 18 74 1 152 7 173 14 44 14 70 49 64
88 -4 27 -4 27 -6 -4z m-274 -79 c-3 -3 -12 -4 -19 -1 -8 3 -5 6 6 6 11 1 17
-2 13 -5z m-132 -24 c-3 -5 -12 -10 -18 -10 -7 0 -6 4 3 10 19 12 23 12 15 0z
m-48 -16 c-3 -3 -12 -4 -19 -1 -8 3 -5 6 6 6 11 1 17 -2 13 -5z m-279 -11
c-10 -2 -28 -2 -40 0 -13 2 -5 4 17 4 22 1 32 -1 23 -4z m205 0 c-7 -2 -21 -2
-30 0 -10 3 -4 5 12 5 17 0 24 -2 18 -5z"/>
</g>
</svg>
