<?xml version="1.0" standalone="no"?>
<!DOCTYPE svg PUBLIC "-//W3C//DTD SVG 20010904//EN"
 "http://www.w3.org/TR/2001/REC-SVG-20010904/DTD/svg10.dtd">
<svg version="1.0" xmlns="http://www.w3.org/2000/svg"
 width="172.000000pt" height="144.000000pt" viewBox="0 0 172.000000 144.000000"
 preserveAspectRatio="xMidYMid meet">
<metadata>
Created by potrace 1.12, written by Peter Selinger 2001-2015
</metadata>
<g transform="translate(0.000000,144.000000) scale(0.100000,-0.100000)"
fill="#000000" stroke="none">
<path d="M393 1403 c-32 -78 -45 -141 -49 -253 -2 -63 -9 -135 -15 -160 -6
-26 -9 -93 -6 -160 3 -98 9 -128 36 -199 40 -108 39 -137 -6 -444 -12 -84 34
-120 201 -153 132 -27 360 -7 412 36 9 8 62 13 157 15 98 1 154 6 182 17 39
14 40 17 43 66 3 46 0 54 -33 90 -19 22 -48 45 -64 51 l-28 12 -7 135 c-6 122
-5 137 14 174 43 85 62 240 41 334 -9 36 -7 40 20 64 66 54 92 153 65 243 -17
59 -96 169 -122 169 -10 0 -1 -17 29 -52 80 -96 100 -194 57 -284 -29 -58 -91
-100 -164 -109 -47 -6 -172 7 -184 20 -3 3 3 14 13 25 18 20 22 68 13 140 -4
32 36 53 122 61 46 4 59 8 44 13 -17 6 -22 18 -27 60 -3 29 -12 69 -21 89
l-15 37 -346 0 -346 0 -16 -37z m202 -3 c33 -31 49 -78 28 -82 -9 -2 10 -20
47 -45 63 -44 93 -56 69 -27 -15 18 -8 25 59 50 49 19 99 10 146 -27 44 -35
29 -102 -41 -179 -54 -61 -109 -83 -209 -83 -70 0 -89 4 -135 28 -30 15 -65
36 -78 46 -13 11 -29 19 -35 19 -17 -1 74 -80 92 -80 12 0 13 -3 4 -12 -7 -7
-40 -12 -78 -12 -88 0 -94 8 -94 135 0 109 12 180 43 252 l20 49 69 -5 c54 -3
74 -9 93 -27z m397 -25 c9 -27 15 -52 12 -54 -2 -2 -17 2 -34 9 -21 9 -49 10
-97 4 -38 -5 -74 -9 -82 -9 -10 0 -39 64 -41 92 0 3 147 10 190 9 33 -1 36 -4
52 -51z m-11 -78 c19 -12 34 -31 34 -42 0 -27 -19 -29 -30 -3 -6 12 -25 33
-44 45 -27 18 -30 23 -14 23 11 0 35 -10 54 -23z m-1 -187 c0 -47 -28 -81 -58
-73 -19 5 -18 8 14 50 19 24 34 49 34 54 0 5 2 9 5 9 3 0 5 -18 5 -40z m-240
-132 c0 -12 -46 -21 -69 -13 -35 11 -23 21 24 21 25 0 45 -3 45 -8z m437 -580
c-3 -8 -6 -5 -6 6 -1 11 2 17 5 13 3 -3 4 -12 1 -19z m3 -48 c0 -11 -4 -20 -9
-20 -5 0 -7 9 -4 20 3 11 7 20 9 20 2 0 4 -9 4 -20z m-26 -3 c-5 -14 -44 -21
-44 -7 0 5 10 11 23 13 12 2 23 5 24 6 1 0 0 -5 -3 -12z m97 -63 c47 -24 80
-72 77 -113 -3 -32 -7 -37 -43 -50 -44 -15 -224 -21 -267 -8 -17 4 -28 14 -28
25 0 10 -13 38 -28 62 l-28 45 80 24 c143 42 179 44 237 15z m-393 -23 c50
-26 81 -57 99 -98 19 -47 10 -68 -40 -89 -62 -26 -287 -32 -392 -10 -131 27
-169 63 -149 143 7 30 13 37 29 35 89 -16 163 -12 235 12 92 31 167 33 218 7z"/>
<path d="M23 223 c-13 -2 -23 -8 -23 -12 0 -7 65 0 120 13 22 5 -71 4 -97 -1z"/>
<path d="M131 187 c-24 -39 -41 -48 -41 -22 0 17 -41 19 -75 5 -19 -8 -19 -9
-1 -9 18 -1 19 -2 1 -21 -18 -20 -18 -20 8 -18 16 1 29 10 33 20 3 10 10 18
16 18 6 0 6 -6 -2 -15 -7 -9 -9 -19 -5 -23 4 -4 10 -1 12 6 6 17 23 15 23 -2
0 -11 7 -13 29 -6 15 4 35 4 42 -1 8 -5 37 -8 64 -8 28 0 44 3 37 6 -10 4 -10
8 -1 19 9 11 7 14 -9 14 -12 0 -24 -4 -27 -10 -11 -17 -47 -11 -66 11 -11 13
-23 18 -31 13 -7 -4 -5 2 6 14 10 11 16 26 14 33 -2 7 -14 -4 -27 -24z"/>
</g>
</svg>
