<?xml version="1.0" standalone="no"?>
<!DOCTYPE svg PUBLIC "-//W3C//DTD SVG 20010904//EN"
 "http://www.w3.org/TR/2001/REC-SVG-20010904/DTD/svg10.dtd">
<svg version="1.0" xmlns="http://www.w3.org/2000/svg"
 width="673.000000pt" height="545.000000pt" viewBox="0 0 673.000000 545.000000"
 preserveAspectRatio="xMidYMid meet">
<metadata>
Created by potrace 1.12, written by Peter Selinger 2001-2015
</metadata>
<g transform="translate(0.000000,545.000000) scale(0.100000,-0.100000)"
fill="#000000" stroke="none">
<path d="M3410 5389 c-328 -16 -609 -52 -955 -120 -164 -33 -331 -71 -413 -94
-40 -12 -52 -20 -52 -35 0 -17 7 -20 43 -20 45 0 263 -24 312 -35 199 -42 326
-102 368 -172 11 -19 22 -32 24 -29 3 3 -4 21 -15 40 -11 19 -18 37 -14 39 4
2 2 2 -5 1 -6 -2 -17 4 -24 12 -10 12 -9 13 7 8 10 -4 4 5 -15 20 -37 28 -46
32 -36 16 9 -14 4 -13 -56 14 -30 14 -88 34 -129 44 -47 13 -68 22 -55 25 11
2 0 3 -25 1 -34 -3 -40 -1 -25 6 15 7 10 8 -20 4 -22 -2 -62 0 -90 5 -31 5
-41 10 -25 11 33 3 -43 19 -85 18 -26 -1 -24 -2 10 -8 l40 -7 -41 -2 c-23 0
-63 2 -90 6 l-48 6 104 29 c103 27 157 36 115 18 -25 -11 1 -11 35 0 21 7 22
8 5 10 -11 1 3 8 30 16 57 16 91 18 60 4 -14 -7 -8 -8 20 -3 48 7 57 13 24 14
-13 1 14 9 61 20 47 10 103 16 125 14 27 -3 34 -2 20 3 -16 7 -12 10 23 15 23
4 61 5 85 2 29 -3 34 -2 17 3 -23 8 -21 9 18 15 24 4 67 5 95 3 35 -4 42 -3
22 2 -28 7 -26 9 23 15 30 5 75 6 100 3 31 -4 38 -3 22 2 -36 12 89 24 178 18
49 -4 58 -3 32 3 -23 6 6 8 90 6 92 -2 107 -1 55 4 -38 4 52 5 200 3 149 -2
272 -6 274 -8 2 -2 36 -3 75 -2 l71 2 -75 6 -75 6 60 2 c33 1 92 -1 130 -5 58
-6 65 -8 40 -14 -16 -4 5 -5 48 -2 46 4 77 2 77 -4 0 -5 15 -8 33 -7 28 3 29
3 7 -4 -23 -8 -22 -9 15 -15 52 -9 79 -7 40 3 l-30 8 31 1 c20 1 34 -5 38 -14
3 -8 16 -15 28 -14 23 1 22 1 -2 10 -18 6 -12 7 20 3 25 -4 52 -12 60 -19 8
-7 31 -16 50 -19 26 -4 30 -3 15 3 l-20 10 20 0 c11 0 26 -3 33 -7 7 -5 37
-80 66 -168 30 -87 55 -154 55 -149 1 14 -99 319 -107 327 -12 12 -297 64
-417 77 -130 14 -429 31 -500 29 -27 0 -120 -4 -205 -9z m278 -16 c-26 -2 -71
-2 -100 0 -29 2 -8 3 47 3 55 0 79 -1 53 -3z m-1023 -373 c3 -5 2 -10 -4 -10
-5 0 -13 5 -16 10 -3 6 -2 10 4 10 5 0 13 -4 16 -10z"/>
<path d="M3088 5333 c12 -2 32 -2 45 0 12 2 2 4 -23 4 -25 0 -35 -2 -22 -4z"/>
<path d="M4118 5333 c12 -2 30 -2 40 0 9 3 -1 5 -23 4 -22 0 -30 -2 -17 -4z"/>
<path d="M2903 5313 c9 -2 25 -2 35 0 9 3 1 5 -18 5 -19 0 -27 -2 -17 -5z"/>
<path d="M2768 5293 c6 -2 18 -2 25 0 6 3 1 5 -13 5 -14 0 -19 -2 -12 -5z"/>
<path d="M4378 5293 c6 -2 18 -2 25 0 6 3 1 5 -13 5 -14 0 -19 -2 -12 -5z"/>
<path d="M2648 5273 c6 -2 18 -2 25 0 6 3 1 5 -13 5 -14 0 -19 -2 -12 -5z"/>
<path d="M2538 5253 c7 -3 16 -2 19 1 4 3 -2 6 -13 5 -11 0 -14 -3 -6 -6z"/>
<path d="M2478 5243 c6 -2 18 -2 25 0 6 3 1 5 -13 5 -14 0 -19 -2 -12 -5z"/>
<path d="M2428 5233 c6 -2 18 -2 25 0 6 3 1 5 -13 5 -14 0 -19 -2 -12 -5z"/>
<path d="M2288 5203 c7 -3 16 -2 19 1 4 3 -2 6 -13 5 -11 0 -14 -3 -6 -6z"/>
<path d="M2158 5173 c7 -3 16 -2 19 1 4 3 -2 6 -13 5 -11 0 -14 -3 -6 -6z"/>
<path d="M2278 5123 c6 -2 18 -2 25 0 6 3 1 5 -13 5 -14 0 -19 -2 -12 -5z"/>
<path d="M2530 5065 c46 -18 64 -17 25 0 -16 8 -37 14 -45 14 -8 0 1 -7 20
-14z"/>
<path d="M2597 5039 c7 -7 15 -10 18 -7 3 3 -2 9 -12 12 -14 6 -15 5 -6 -5z"/>
<path d="M4641 4945 c1 -19 18 -51 18 -35 0 8 -4 22 -9 30 -5 8 -9 11 -9 5z"/>
<path d="M4661 4880 c42 -136 265 -800 270 -800 7 0 -258 801 -268 809 -3 3
-4 -1 -2 -9z"/>
<path d="M2656 4644 c-43 -104 -96 -229 -116 -279 -55 -130 -393 -945 -490
-1180 -45 -110 -95 -229 -110 -265 -15 -36 -101 -243 -191 -460 -154 -369
-167 -398 -215 -450 -94 -101 -212 -155 -414 -190 -102 -18 -103 -18 -45 -19
53 -1 203 31 259 54 14 6 17 5 12 -4 -6 -8 2 -8 26 2 18 7 33 19 33 25 0 15
75 61 90 56 6 -3 24 10 40 28 l30 33 -31 -27 c-52 -48 -48 -30 7 30 45 49 63
81 111 198 32 76 83 200 114 274 31 74 82 198 114 275 64 154 130 314 210 505
29 69 67 161 85 205 18 44 84 202 145 350 146 350 200 481 265 640 30 72 76
184 104 250 28 66 50 124 48 129 -2 5 -38 -76 -81 -180z m-1266 -2774 c-8 -5
-19 -10 -25 -10 -5 0 -3 5 5 10 8 5 20 10 25 10 6 0 3 -5 -5 -10z"/>
<path d="M3594 4240 c-22 -66 -36 -116 -32 -112 5 5 22 49 39 98 16 49 33 92
37 96 4 4 24 -41 44 -100 171 -503 207 -605 214 -612 5 -5 179 -12 387 -17
l377 -8 -300 -224 c-165 -122 -300 -228 -300 -234 0 -7 4 -7 12 1 16 16 31 15
22 0 -4 -8 -3 -10 2 -5 5 5 9 14 9 19 0 6 6 13 14 16 9 3 11 0 6 -8 -6 -9 -4
-11 4 -6 7 5 10 11 7 14 -7 7 24 42 37 42 5 0 3 -8 -4 -17 -12 -14 -10 -14 14
1 31 21 35 28 10 20 -10 -3 -5 5 12 20 32 28 51 34 39 14 -5 -8 0 -7 12 2 53
41 79 64 77 70 -4 13 36 43 59 44 13 1 22 7 21 13 -2 7 12 24 31 38 38 29 54
33 35 8 -11 -15 -10 -15 8 1 13 10 20 22 18 27 -3 4 8 17 24 28 32 23 46 27
35 9 -4 -7 -3 -8 5 -4 6 4 9 11 6 16 -8 12 23 33 37 24 7 -4 10 -4 6 1 -4 4
-3 14 3 22 14 16 33 18 23 1 -5 -7 -3 -8 5 -4 7 5 10 10 7 13 -3 3 4 17 15 32
l21 26 -49 3 c-26 1 -55 5 -63 9 -26 11 -40 12 -34 2 3 -5 -72 -8 -183 -7
l-188 2 165 6 c157 6 154 6 -77 6 -134 0 -246 3 -249 7 -4 4 -14 7 -23 6 -12
0 -11 -3 4 -9 14 -7 2 -9 -39 -7 l-59 2 -68 200 c-38 110 -94 275 -125 368
-31 92 -59 167 -62 167 -4 0 -25 -54 -48 -120z m701 -960 c-21 -16 -41 -30
-44 -30 -9 1 62 60 72 60 6 0 -7 -13 -28 -30z"/>
<path d="M3541 4080 c-6 -16 -16 -44 -22 -60 -7 -17 -9 -33 -6 -36 2 -3 14 23
26 57 21 63 23 95 2 39z"/>
<path d="M4933 4059 c3 -10 11 -35 18 -58 7 -23 16 -41 20 -41 8 0 -26 98 -37
109 -4 3 -5 -1 -1 -10z"/>
<path d="M3625 4018 c-61 -173 -114 -335 -112 -342 3 -8 40 89 52 134 8 29 65
192 72 203 3 5 12 -1 19 -14 14 -24 19 -14 8 15 -7 19 -33 21 -39 4z"/>
<path d="M3640 3980 c0 -3 27 -84 61 -180 33 -96 70 -203 82 -238 12 -35 24
-57 27 -49 4 13 7 13 18 1 11 -12 10 -14 -3 -14 -14 0 -73 -58 -155 -153 -31
-36 -32 -40 -19 -66 27 -53 391 -582 397 -577 3 4 -81 135 -187 292 l-193 285
121 -60 c66 -34 126 -58 134 -55 10 3 20 -18 36 -81 13 -47 25 -84 27 -82 3 3
-4 38 -16 78 -11 40 -20 75 -20 76 0 2 91 71 203 154 225 168 223 167 215 174
-3 3 -18 -5 -33 -17 -16 -13 -26 -18 -22 -11 16 25 -24 33 -199 36 l-179 2
218 3 c142 1 216 5 212 12 -4 6 -105 10 -272 10 -264 0 -265 0 -271 22 -5 20
-6 20 -12 4 -4 -12 -18 19 -43 94 -21 62 -36 115 -33 117 2 2 14 -26 26 -62
12 -36 24 -65 26 -62 2 2 -22 78 -53 170 -31 92 -59 165 -61 163 -2 -2 11 -45
28 -96 17 -50 30 -96 28 -101 -2 -5 -19 37 -37 93 -29 86 -51 137 -51 118z
m619 -504 c-2 -2 -40 -13 -84 -24 -144 -36 -474 -122 -492 -129 -10 -4 15 30
56 75 l73 82 226 0 c124 0 223 -2 221 -4z m11 -30 c-37 -34 -345 -259 -354
-259 -25 1 -240 112 -226 117 15 6 78 22 310 83 74 19 164 43 200 53 82 23 88
23 70 6z m30 0 c0 -2 -8 -10 -17 -17 -16 -13 -17 -12 -4 4 13 16 21 21 21 13z"/>
<path d="M3471 3878 c-17 -51 -44 -129 -59 -173 l-27 -80 -60 -2 c-42 -2 -54
0 -40 7 15 6 16 9 4 9 -9 1 -19 -2 -23 -6 -3 -4 -120 -7 -259 -7 -247 0 -248
0 -77 -6 l175 -6 -195 -2 c-107 -1 -223 -1 -258 -2 -61 0 -62 -1 -51 -22 10
-18 9 -20 -5 -15 -11 4 -15 3 -11 -4 4 -6 13 -8 20 -5 15 6 57 -22 50 -34 -6
-10 22 -33 33 -26 12 7 94 -53 87 -64 -3 -5 0 -12 6 -16 8 -4 9 -3 5 4 -12 19
3 14 40 -14 18 -14 31 -30 28 -35 -3 -5 1 -7 8 -4 7 2 27 -7 43 -21 17 -15 22
-24 13 -20 -25 8 -22 1 8 -19 15 -9 23 -12 20 -6 -4 6 -3 11 3 11 10 0 26 -19
26 -32 0 -3 4 -10 9 -15 5 -5 6 -2 1 6 -5 9 -3 12 6 9 8 -3 14 -10 14 -16 0
-6 6 -17 14 -24 10 -10 12 -10 7 0 -4 6 -3 12 3 12 10 0 26 -19 26 -32 0 -3 4
-10 9 -15 5 -5 6 -3 2 5 -4 6 -3 12 3 12 10 0 26 -19 26 -32 0 -3 4 -10 9 -15
5 -5 6 -3 2 5 -4 6 -3 12 3 12 10 0 26 -19 26 -32 0 -3 4 -10 9 -15 5 -5 6 -3
2 5 -4 6 -3 12 3 12 10 0 26 -19 26 -32 0 -3 4 -10 9 -15 5 -5 6 -3 2 5 -9 15
6 16 22 0 6 -6 14 -9 18 -6 3 4 -132 110 -300 236 l-305 229 382 7 c210 4 383
8 384 10 8 8 124 359 120 363 -3 2 -19 -38 -36 -89z m-786 -358 c3 -5 2 -10
-4 -10 -5 0 -13 5 -16 10 -3 6 -2 10 4 10 5 0 13 -4 16 -10z"/>
<path d="M4976 3930 c7 -28 12 -35 18 -29 2 2 -2 15 -10 29 l-15 25 7 -25z"/>
<path d="M4993 3880 c40 -136 116 -350 117 -330 0 12 -101 313 -111 328 -7 12
-9 13 -6 2z"/>
<path d="M3479 3591 l-23 -71 -267 0 c-168 0 -270 -4 -274 -10 -4 -6 14 -10
47 -11 48 -1 50 -2 25 -11 -22 -8 -26 -13 -16 -24 14 -17 33 -19 23 -2 -4 7
-3 8 4 4 11 -7 166 -47 474 -125 l147 -37 -125 -62 -124 -62 -181 136 c-99 75
-182 134 -185 132 -3 -3 306 -242 349 -270 7 -4 6 -22 -3 -55 -15 -55 -35 -94
-26 -50 3 15 8 39 11 55 5 27 5 27 -4 2 -20 -52 -91 -285 -90 -295 0 -5 11 19
24 55 26 73 33 69 10 -5 -21 -71 -11 -67 12 4 13 38 16 62 10 64 -7 2 -6 20 3
52 8 27 16 43 18 36 2 -6 -2 -25 -8 -42 -7 -16 -10 -32 -7 -35 3 -3 19 40 37
95 l31 101 113 55 c61 30 115 55 119 55 5 0 -74 -121 -174 -270 -101 -148
-184 -268 -186 -266 -2 2 3 22 10 45 8 22 11 38 6 35 -8 -5 -22 -44 -38 -110
l-8 -32 33 20 c35 20 46 35 20 25 -8 -3 13 35 48 86 287 422 318 471 320 498
2 25 -11 45 -77 115 -43 46 -86 84 -94 84 -11 0 -13 4 -6 13 14 18 55 138 50
144 -3 2 -16 -27 -28 -66z m26 -143 c15 -18 48 -55 74 -82 25 -27 41 -46 35
-43 -6 3 -138 38 -295 78 -156 39 -286 73 -288 75 -2 2 97 4 221 4 l225 0 28
-32z"/>
<path d="M3323 3633 c9 -2 25 -2 35 0 9 3 1 5 -18 5 -19 0 -27 -2 -17 -5z"/>
<path d="M3918 3633 c6 -2 18 -2 25 0 6 3 1 5 -13 5 -14 0 -19 -2 -12 -5z"/>
<path d="M3791 3610 c0 -8 4 -22 9 -30 12 -18 12 -2 0 25 -6 13 -9 15 -9 5z"/>
<path d="M5259 3070 c85 -258 158 -470 161 -470 4 0 -64 211 -149 470 -86 258
-159 470 -162 470 -3 0 64 -211 150 -470z"/>
<path d="M2910 3483 c1 -5 82 -69 182 -143 241 -179 247 -184 253 -178 5 5
-418 328 -429 328 -3 0 -6 -3 -6 -7z"/>
<path d="M4315 3480 c3 -5 8 -10 11 -10 2 0 4 5 4 10 0 6 -5 10 -11 10 -5 0
-7 -4 -4 -10z"/>
<path d="M3215 3098 c-24 -68 -75 -236 -74 -248 1 -16 6 -1 37 100 11 36 27
86 35 113 8 26 13 47 11 47 -3 0 -7 -6 -9 -12z"/>
<path d="M4061 3100 c-1 -9 17 -72 38 -140 22 -69 54 -173 73 -232 18 -60 36
-108 40 -108 4 0 3 12 -3 28 -6 15 -40 122 -75 237 -72 237 -72 236 -73 215z"/>
<path d="M3990 2987 c0 -3 20 -68 43 -144 58 -182 61 -196 45 -191 -7 3 -13
11 -13 19 0 8 -4 14 -10 14 -5 0 -9 -4 -7 -8 1 -5 -2 -6 -8 -2 -6 3 -8 10 -5
15 6 9 -51 53 -216 167 -64 44 -129 90 -146 102 l-30 23 -182 -128 c-99 -70
-179 -129 -177 -131 2 -3 66 39 141 92 75 53 139 95 141 92 4 -4 -324 -235
-366 -258 -19 -10 -21 -14 -9 -17 9 -1 88 48 175 109 88 62 183 130 213 151
30 21 58 38 63 38 5 0 104 -67 222 -150 117 -82 219 -150 226 -150 17 0 7 46
-47 215 -40 125 -53 161 -53 142z m-374 -52 c-20 -14 -40 -25 -44 -25 -13 1
53 50 67 50 8 0 -3 -11 -23 -25z m165 -72 c13 -16 12 -17 -3 -4 -17 13 -22 21
-14 21 2 0 10 -8 17 -17z"/>
<path d="M3105 2743 c-15 -48 -36 -117 -47 -153 -10 -36 -24 -76 -29 -90 -9
-24 -9 -24 6 -6 8 11 15 24 15 30 0 9 44 157 76 255 8 24 13 46 10 48 -2 2
-16 -35 -31 -84z"/>
<path d="M3215 2765 c-9 -32 -14 -59 -12 -61 2 -3 11 21 20 53 9 31 15 58 13
61 -2 2 -12 -22 -21 -53z"/>
<path d="M3186 2673 c-6 -14 -5 -15 5 -6 7 7 10 15 7 18 -3 3 -9 -2 -12 -12z"/>
<path d="M4212 2598 c3 -7 11 -34 19 -60 7 -27 17 -48 21 -48 3 0 -2 27 -14
60 -11 33 -22 60 -25 60 -3 0 -3 -6 -1 -12z"/>
<path d="M5423 2580 c2 -8 58 -179 124 -380 67 -201 124 -375 127 -387 l7 -23
-1003 2 c-711 0 -975 4 -908 10 52 6 129 10 170 11 43 0 64 3 50 7 -21 5 -17
8 23 14 27 4 51 5 55 2 3 -3 -7 -6 -23 -6 -16 0 -26 -3 -22 -6 3 -3 25 -3 49
1 33 6 39 9 23 15 -16 6 -12 8 18 14 21 4 46 10 55 13 15 4 15 3 2 -6 -20 -15
32 -4 75 16 17 7 22 11 12 8 -11 -3 -31 -7 -45 -10 -19 -4 -17 -1 9 9 95 37
169 94 169 129 0 7 -12 -3 -27 -22 -63 -80 -267 -139 -595 -172 -112 -11 -128
-15 -128 -31 0 -17 46 -18 1025 -18 901 0 1025 2 1025 15 0 8 -20 74 -44 147
-24 73 -80 245 -125 382 -45 136 -86 255 -92 265 -8 12 -9 12 -6 1z"/>
<path d="M4250 2475 c0 -2 6 -24 14 -47 8 -24 26 -82 41 -130 15 -49 29 -88
32 -88 5 0 3 6 -44 158 -30 96 -43 128 -43 107z"/>
<path d="M3016 2455 c-9 -26 -7 -32 5 -12 6 10 9 21 6 23 -2 3 -7 -2 -11 -11z"/>
<path d="M2994 2385 c-6 -19 -8 -35 -4 -35 4 0 11 16 17 35 6 19 8 35 5 35 -4
0 -12 -16 -18 -35z"/>
<path d="M2964 2284 c-10 -33 -19 -63 -20 -69 -1 -5 -16 -52 -32 -102 -16 -51
-26 -93 -22 -93 4 0 10 10 13 23 3 12 15 52 26 90 45 143 60 201 56 205 -2 2
-12 -22 -21 -54z"/>
<path d="M4341 2192 c-1 -17 40 -144 45 -139 2 2 -7 37 -21 78 -13 41 -24 68
-24 61z"/>
<path d="M2876 1995 c-9 -26 -7 -32 5 -12 6 10 9 21 6 23 -2 3 -7 -2 -11 -11z"/>
<path d="M2860 1938 c-5 -13 -17 -50 -27 -83 l-18 -60 -897 -3 c-587 -1 -898
-6 -898 -12 0 -7 309 -10 899 -10 l898 0 18 58 c10 31 24 74 31 95 14 40 10
52 -6 15z"/>
<path d="M4337 1931 c-41 -26 -46 -36 -10 -17 17 9 35 20 38 26 8 13 6 12 -28
-9z"/>
<path d="M1430 1890 c-9 -6 -10 -10 -3 -10 6 0 15 5 18 10 8 12 4 12 -15 0z"/>
<path d="M4128 1843 c7 -3 16 -2 19 1 4 3 -2 6 -13 5 -11 0 -14 -3 -6 -6z"/>
<path d="M1247 1808 c2 -5 354 -7 781 -6 427 2 680 4 562 5 -550 7 -1348 7
-1343 1z"/>
<path d="M417 1510 c-20 -4 -39 -9 -42 -11 -6 -7 8 -23 33 -37 30 -17 38 -10
17 12 -15 15 -14 16 12 18 15 0 34 1 41 1 6 -1 12 5 12 13 0 15 -14 16 -73 4z"/>
<path d="M4736 1499 c-14 -11 -26 -28 -26 -37 1 -13 5 -12 21 8 29 34 108 36
141 3 l22 -23 -26 0 c-15 0 -30 -4 -33 -10 -4 -6 8 -10 28 -10 26 0 34 4 33
18 -5 65 -102 96 -160 51z"/>
<path d="M2120 1490 c-22 -22 -16 -56 13 -74 19 -12 48 1 55 23 3 10 0 10 -16
0 -25 -15 -52 -5 -52 20 0 24 25 34 51 21 21 -12 26 -1 7 18 -17 17 -35 15
-58 -8z"/>
<path d="M3388 1499 c-10 -5 -18 -17 -18 -26 0 -14 2 -14 19 1 15 14 24 15 40
6 23 -12 28 -1 9 18 -14 14 -27 15 -50 1z"/>
<path d="M10 1490 c0 -6 65 -10 175 -10 110 0 175 4 175 10 0 6 -65 10 -175
10 -110 0 -175 -4 -175 -10z"/>
<path d="M1291 1491 c-39 -7 -52 -28 -24 -37 10 -3 26 -10 36 -15 25 -14 32
-5 13 14 -14 13 -13 15 7 21 12 3 32 6 45 6 12 0 22 5 22 10 0 11 -44 11 -99
1z"/>
<path d="M1585 1490 c3 -5 15 -10 26 -10 10 0 19 5 19 10 0 6 -12 10 -26 10
-14 0 -23 -4 -19 -10z"/>
<path d="M5086 1490 c5 -5 84 -10 175 -12 127 -2 166 0 166 10 0 9 -42 12
-176 12 -111 0 -172 -3 -165 -10z"/>
<path d="M4772 1478 c-7 -7 -12 -16 -12 -22 0 -6 5 -5 12 2 16 16 45 15 51 0
2 -7 8 -10 12 -6 11 10 -14 38 -34 38 -9 0 -22 -5 -29 -12z"/>
<path d="M53 1463 c-7 -2 -13 -14 -13 -26 1 -20 2 -20 11 -4 7 12 23 17 59 17
28 0 50 5 50 10 0 10 -84 13 -107 3z"/>
<path d="M210 1460 c0 -5 22 -10 50 -10 36 0 52 -5 59 -17 9 -15 10 -15 11 -2
0 8 -5 20 -12 27 -14 14 -108 16 -108 2z"/>
<path d="M5122 1458 c-7 -7 -12 -19 -12 -27 1 -13 2 -13 11 2 7 12 23 17 54
17 24 0 47 5 50 10 9 15 -88 13 -103 -2z"/>
<path d="M5280 1260 l0 -210 -30 0 c-16 0 -30 -4 -30 -10 0 -5 16 -10 35 -10
l35 0 0 210 0 210 43 0 c24 0 48 -5 55 -12 9 -9 12 -8 12 4 0 20 -21 28 -76
28 l-44 0 0 -210z"/>
<path d="M3590 1435 c-19 -20 -20 -25 -7 -25 9 0 19 6 24 13 5 8 10 0 14 -23
6 -32 7 -30 6 13 0 26 -3 47 -7 47 -4 0 -17 -11 -30 -25z"/>
<path d="M3372 1439 c8 -23 36 -35 55 -23 9 6 19 16 21 23 3 10 -1 10 -17 -1
-17 -11 -25 -11 -42 0 -16 11 -20 11 -17 1z"/>
<path d="M350 1425 c0 -8 -4 -15 -10 -15 -5 0 -10 -4 -10 -10 0 -5 7 -10 15
-10 9 0 15 9 15 25 0 14 -2 25 -5 25 -3 0 -5 -7 -5 -15z"/>
<path d="M5403 1404 c0 -8 6 -14 14 -14 7 0 13 4 13 9 0 5 -6 11 -13 14 -8 3
-14 -1 -14 -9z"/>
<path d="M15 1400 c-3 -5 1 -10 9 -10 9 0 16 5 16 10 0 6 -4 10 -9 10 -6 0
-13 -4 -16 -10z"/>
<path d="M5080 1400 c0 -5 7 -10 15 -10 8 0 15 5 15 10 0 6 -7 10 -15 10 -8 0
-15 -4 -15 -10z"/>
<path d="M524 1336 c-31 -31 -47 -65 -24 -51 13 8 13 -1 0 -26 -18 -32 4 -21
25 14 22 35 57 46 82 25 15 -12 15 -11 4 10 -15 28 -48 28 -78 0 -13 -12 -23
-17 -23 -10 0 17 56 52 84 52 15 0 38 -11 51 -25 30 -29 34 -8 5 23 -33 35
-84 30 -126 -12z"/>
<path d="M834 1360 c-29 -11 -64 -58 -64 -84 1 -16 4 -14 15 12 34 77 179 83
210 8 7 -15 15 -24 18 -19 10 15 -31 73 -59 83 -31 12 -91 12 -120 0z"/>
<path d="M1741 1361 c-45 -8 -50 -26 -12 -46 32 -16 44 -4 14 14 -14 8 -15 11
-3 11 34 3 65 11 74 20 11 11 -17 11 -73 1z"/>
<path d="M1869 1355 c-26 -14 -59 -55 -59 -73 0 -6 17 8 39 29 49 49 98 54
136 13 14 -15 25 -22 25 -15 0 7 -11 23 -25 36 -28 29 -75 32 -116 10z"/>
<path d="M2110 1361 c-35 -6 -58 -41 -26 -41 8 0 22 -7 30 -16 14 -14 16 -14
16 0 0 8 -8 20 -17 25 -17 10 -17 10 0 12 9 1 22 3 27 4 6 1 17 3 25 4 8 0 15
6 15 11 0 11 -15 11 -70 1z"/>
<path d="M2632 1353 c-36 -17 -52 -40 -57 -81 -4 -25 -3 -25 10 4 21 47 61 74
109 74 55 0 87 -18 108 -60 16 -30 18 -32 18 -11 0 13 -15 38 -34 57 -28 28
-41 34 -77 34 -24 0 -59 -8 -77 -17z"/>
<path d="M2895 1361 c-28 -4 -39 -11 -37 -21 2 -8 8 -17 13 -18 5 -2 16 -10
24 -19 13 -13 15 -13 15 1 0 8 -8 19 -17 25 -14 7 -7 11 30 16 26 4 47 11 47
16 0 10 -13 10 -75 0z"/>
<path d="M2988 1339 c-22 -22 -28 -33 -19 -38 9 -6 9 -15 1 -36 l-11 -28 31
33 c21 22 36 31 50 27 11 -3 20 -2 20 3 0 14 -31 20 -52 9 -11 -6 -23 -8 -26
-4 -10 10 37 45 59 45 10 0 19 5 19 10 0 21 -43 9 -72 -21z"/>
<path d="M3135 1354 c-32 -16 -45 -31 -45 -52 0 -7 11 0 24 15 22 26 30 28 95
28 71 0 91 7 49 19 -40 10 -92 6 -123 -10z"/>
<path d="M3370 1361 c-43 -7 -50 -32 -13 -48 31 -15 46 -7 20 12 -15 11 -13
13 23 19 22 3 40 11 40 16 0 11 -15 11 -70 1z"/>
<path d="M3545 1362 c-26 -4 -28 -5 -10 -12 17 -7 17 -9 3 -9 -31 -2 -19 -21
12 -21 25 0 30 4 30 25 0 14 -1 24 -2 24 -2 -1 -16 -4 -33 -7z"/>
<path d="M4363 1350 c-29 -17 -70 -76 -60 -86 2 -2 9 6 16 19 19 35 73 67 115
67 63 0 112 -35 135 -95 l11 -30 -5 33 c-14 94 -128 144 -212 92z"/>
<path d="M5531 1357 c-29 -14 -57 -52 -65 -87 -5 -18 -1 -14 14 12 45 83 159
92 217 18 15 -19 17 -6 3 21 -24 43 -116 63 -169 36z"/>
<path d="M6138 1354 c-31 -16 -48 -43 -48 -73 0 -17 6 -21 33 -21 27 0 35 5
44 30 13 34 50 41 77 14 13 -13 16 -13 16 -1 0 45 -77 49 -98 5 -9 -19 -21
-28 -38 -28 -30 0 -31 13 -2 39 45 43 142 39 179 -7 14 -17 20 -20 16 -9 -4
10 -7 23 -7 28 0 16 -59 39 -102 39 -24 -1 -55 -7 -70 -16z"/>
<path d="M6455 1360 c-24 -9 -39 -26 -49 -55 -5 -16 -2 -14 19 7 32 34 62 42
126 34 28 -4 49 -3 49 2 0 21 -104 29 -145 12z"/>
<path d="M2260 1347 l55 -12 38 -90 c20 -49 43 -103 50 -119 l13 -29 22 64
c52 151 61 174 76 177 13 3 10 -13 -15 -80 -17 -46 -41 -112 -54 -147 -13 -37
-29 -65 -38 -67 -11 -1 -31 36 -67 125 -64 154 -74 171 -103 171 -22 -1 -22
-1 3 -14 18 -11 40 -52 85 -158 80 -190 82 -190 157 7 31 83 57 158 57 168 1
11 -7 17 -22 17 -19 0 -27 -14 -61 -110 -21 -61 -40 -109 -43 -107 -2 3 -24
51 -48 108 l-44 104 -58 2 -58 2 55 -12z"/>
<path d="M3627 1339 c-5 -19 -2 -21 51 -19 31 1 62 2 68 1 7 0 38 -62 70 -137
32 -75 60 -132 61 -127 2 6 -22 68 -52 139 -31 71 -59 134 -61 140 -3 7 6 9
23 7 25 -4 32 -13 52 -66 13 -34 35 -86 49 -116 l24 -55 13 35 c64 177 74 199
91 199 7 0 -9 -55 -43 -147 -95 -257 -106 -273 -173 -273 -20 0 -40 9 -57 26
-14 14 -27 23 -30 20 -3 -3 8 -19 25 -36 24 -23 39 -30 70 -30 47 0 80 32 106
102 9 24 39 104 67 178 67 178 67 180 37 180 -22 0 -29 -11 -63 -105 -21 -58
-42 -105 -45 -105 -4 0 -26 47 -50 105 l-43 105 -92 0 c-86 0 -93 -2 -98 -21z
m116 4 c-7 -2 -19 -2 -25 0 -7 3 -2 5 12 5 14 0 19 -2 13 -5z"/>
<path d="M4660 1350 c10 -6 11 -10 3 -10 -7 0 -13 -4 -13 -10 0 -5 14 -10 31
-10 26 0 29 3 20 14 -9 11 -9 15 1 19 7 3 -3 6 -22 6 -26 1 -31 -2 -20 -9z"/>
<path d="M4760 1346 c0 -8 -2 -20 -3 -28 -2 -7 -2 -10 0 -5 3 4 25 7 49 7 37
0 44 3 44 20 0 17 -7 20 -45 20 -32 0 -45 -4 -45 -14z m63 -3 c-7 -2 -19 -2
-25 0 -7 3 -2 5 12 5 14 0 19 -2 13 -5z"/>
<path d="M5740 1346 c0 -8 11 -16 23 -20 14 -3 42 -31 66 -66 l43 -61 -56 -73
c-31 -40 -56 -78 -56 -85 0 -6 10 -11 23 -11 16 0 35 17 67 60 25 33 48 59 52
57 4 -1 24 -27 45 -57 31 -45 45 -56 71 -58 24 -2 32 1 32 13 0 18 -99 169
-107 162 -2 -3 18 -39 46 -81 48 -73 49 -76 26 -76 -19 0 -35 15 -69 66 l-43
65 -53 -65 c-28 -37 -56 -66 -62 -66 -11 0 -12 -1 44 70 63 80 63 78 7 153
-34 47 -55 67 -71 67 -12 0 -19 3 -16 6 4 3 26 3 50 -1 38 -6 47 -13 76 -56
17 -27 35 -49 40 -49 4 1 25 25 46 54 22 29 45 53 52 53 6 0 -9 -27 -33 -59
-25 -33 -43 -61 -40 -64 6 -7 97 111 97 125 0 6 -10 11 -23 11 -16 0 -35 -16
-61 -51 l-39 -50 -35 50 c-35 50 -36 51 -89 51 -39 0 -53 -4 -53 -14z"/>
<path d="M840 1318 c-11 -12 -20 -32 -20 -45 0 -22 3 -23 71 -23 l71 0 -7 28
c-15 62 -75 83 -115 40z m98 -25 l14 -23 -61 0 c-33 0 -61 3 -61 7 0 3 8 15
17 25 23 25 71 20 91 -9z"/>
<path d="M2653 1325 c-11 -8 -23 -28 -25 -45 l-5 -30 69 0 c39 0 68 4 68 10 0
6 -27 10 -60 10 -62 0 -71 7 -44 34 22 23 60 20 84 -6 21 -22 22 -22 18 -3 -7
43 -64 59 -105 30z"/>
<path d="M3153 1329 c-20 -20 -15 -31 8 -18 21 11 65 8 100 -6 10 -3 16 -1 16
8 0 7 -5 14 -11 15 -6 1 -31 4 -56 7 -31 5 -49 3 -57 -6z"/>
<path d="M4392 1323 c-11 -10 -23 -29 -27 -43 l-7 -25 18 25 c24 33 34 40 66
40 17 0 34 -9 47 -26 15 -20 21 -22 21 -10 0 47 -78 73 -118 39z"/>
<path d="M5540 1320 c-11 -11 -20 -31 -20 -45 0 -24 2 -25 65 -25 65 0 65 0
65 28 0 57 -69 83 -110 42z m88 -12 c26 -26 13 -38 -43 -38 -59 0 -64 4 -38
32 18 20 63 24 81 6z"/>
<path d="M6466 1325 c-20 -21 -13 -33 9 -15 14 12 53 10 105 -5 23 -7 24 -7 9
10 -25 25 -101 32 -123 10z"/>
<path d="M1858 1313 c-20 -23 -48 -79 -48 -95 0 -7 7 1 16 18 24 50 52 74 84
74 17 0 30 -5 30 -12 0 -6 2 -9 5 -6 3 3 3 13 -1 22 -8 22 -66 21 -86 -1z"/>
<path d="M3140 1276 c0 -8 31 -33 68 -55 38 -22 73 -50 80 -63 11 -23 11 -23
11 -1 1 22 -62 83 -86 83 -6 0 -25 12 -42 26 -23 19 -31 22 -31 10z"/>
<path d="M3091 1262 c-1 -29 33 -63 90 -92 24 -13 47 -28 51 -34 4 -6 10 -7
14 -3 11 10 -11 31 -58 56 -60 31 -76 44 -87 72 l-10 24 0 -23z"/>
<path d="M6460 1270 c0 -12 33 -36 68 -50 18 -7 43 -26 57 -41 31 -37 40 -37
20 0 -9 19 -38 42 -80 64 -36 19 -65 31 -65 27z"/>
<path d="M6410 1238 c7 -15 34 -38 64 -53 28 -16 62 -37 75 -49 21 -19 23 -19
18 -3 -4 10 -7 20 -7 23 0 2 -24 15 -52 30 -29 14 -66 38 -81 53 l-29 26 12
-27z"/>
<path d="M820 1230 c0 -6 40 -10 100 -10 60 0 100 4 100 10 0 6 -40 10 -100
10 -60 0 -100 -4 -100 -10z"/>
<path d="M2620 1228 c0 -10 25 -12 100 -10 55 2 100 8 100 13 0 5 -45 9 -100
9 -73 0 -100 -3 -100 -12z"/>
<path d="M5520 1230 c0 -6 40 -10 100 -10 60 0 100 4 100 10 0 6 -40 10 -100
10 -60 0 -100 -4 -100 -10z"/>
<path d="M6142 1203 c-18 -9 -40 -29 -48 -45 -19 -36 -11 -36 24 2 18 20 40
31 67 34 22 3 31 3 20 0 -24 -7 -55 -33 -55 -47 0 -6 8 -2 19 7 10 9 35 20 55
23 39 6 59 23 29 24 -16 0 -16 1 2 9 15 6 7 9 -30 9 -27 0 -65 -7 -83 -16z"/>
<path d="M820 1187 c0 -21 26 -74 48 -99 8 -10 31 -21 51 -24 30 -6 32 -8 16
-15 -45 -17 -117 17 -145 69 -20 36 -21 36 -15 7 12 -63 105 -113 183 -99 51
9 61 17 32 25 -24 7 -24 7 -2 8 12 1 22 5 22 10 0 5 -20 9 -44 8 -56 -2 -93
23 -123 83 -13 24 -23 36 -23 27z"/>
<path d="M2635 1153 c20 -48 42 -72 80 -89 l30 -13 -42 -1 c-35 0 -49 6 -83
38 -22 22 -40 38 -40 36 0 -2 5 -15 12 -29 19 -42 72 -68 138 -68 60 1 122 21
70 23 -25 1 -25 1 -2 10 32 13 27 22 -10 19 -18 -1 -43 -1 -55 0 -27 1 -93 67
-93 93 0 10 -5 18 -10 18 -6 0 -4 -16 5 -37z"/>
<path d="M5520 1182 c0 -46 66 -122 107 -122 14 0 15 -2 4 -9 -12 -8 -56 -2
-94 14 -10 4 -29 24 -42 44 -14 19 -25 29 -25 21 0 -9 13 -31 29 -51 34 -41
94 -63 149 -54 60 10 71 17 42 25 -24 8 -24 8 -2 9 43 2 21 19 -23 19 -55 -1
-90 21 -122 78 -13 21 -23 33 -23 26z"/>
<path d="M2571 1154 c0 -11 3 -14 6 -6 3 7 2 16 -1 19 -3 4 -6 -2 -5 -13z"/>
<path d="M4301 1145 c-1 -27 32 -80 65 -101 36 -24 111 -23 152 1 30 18 62 68
62 97 0 7 -8 -2 -17 -21 -16 -32 -65 -71 -90 -71 -6 0 2 14 18 31 16 18 27 34
25 37 -3 3 -13 -5 -23 -16 -34 -39 -93 -29 -113 19 -7 16 -15 28 -17 25 -10
-10 28 -77 49 -86 23 -9 22 -9 -4 -9 -32 -1 -94 55 -101 91 -4 19 -4 20 -6 3z"/>
<path d="M1320 1134 c0 -21 35 -72 58 -86 62 -36 180 -28 220 15 11 12 23 36
27 52 l6 30 -15 -32 c-16 -34 -61 -63 -98 -62 -14 0 -17 3 -8 6 41 13 60 29
70 57 l10 31 -22 -28 c-45 -54 -133 -54 -163 2 -8 15 -14 20 -15 11 0 -22 29
-60 54 -70 18 -8 17 -9 -11 -9 -24 -1 -41 8 -68 35 -19 19 -33 39 -30 45 4 5
1 9 -4 9 -6 0 -11 -3 -11 -6z"/>
<path d="M6250 1127 c0 -18 -32 -47 -53 -47 -9 0 -23 10 -31 22 -15 22 -16 22
-16 2 0 -46 53 -59 87 -21 24 26 36 57 23 57 -6 0 -10 -6 -10 -13z"/>
<path d="M3291 1113 c-1 -26 -46 -63 -75 -62 l-21 0 21 9 c23 9 39 28 32 36
-3 2 -18 -3 -35 -11 -28 -14 -51 -12 -105 10 -36 14 -17 -13 20 -29 l37 -17
-38 5 c-56 7 -42 -17 15 -26 81 -14 168 36 155 88 -4 16 -5 16 -6 -3z"/>
<path d="M6599 1097 c-12 -26 -21 -32 -73 -48 -17 -5 -26 -5 -20 0 5 5 17 11
28 13 10 1 23 14 28 27 8 23 8 24 -9 9 -30 -25 -52 -28 -96 -13 -53 19 -62 19
-47 0 7 -8 27 -19 44 -25 l31 -9 -37 2 c-49 2 -58 -10 -17 -21 79 -22 160 3
180 55 13 34 3 43 -12 10z"/>
<path d="M6091 1097 c-1 -32 18 -55 54 -67 31 -10 41 -9 75 8 31 15 40 16 40
6 0 -9 11 -14 30 -14 17 0 30 5 30 10 0 6 -11 10 -25 10 -23 0 -30 10 -26 33
1 5 -12 -1 -28 -12 -29 -21 -94 -28 -118 -13 -7 4 -16 19 -22 32 -7 19 -10 20
-10 7z"/>
<path d="M3631 1085 c3 -12 14 -21 27 -23 36 -5 25 -18 -13 -14 -19 2 -40 10
-46 18 -17 21 -31 17 -19 -6 12 -23 79 -43 113 -35 34 9 30 50 -5 50 -14 1
-34 7 -43 15 -15 13 -17 12 -14 -5z"/>
<path d="M151 1058 c-1 -25 2 -28 34 -28 19 0 35 5 35 10 0 6 -13 10 -29 10
-20 0 -31 6 -34 18 -3 10 -5 6 -6 -10z"/>
<path d="M1945 1052 c-2 -3 -2 -9 1 -13 7 -12 64 -12 64 0 0 9 -57 21 -65 13z"/>
<path d="M430 1040 c0 -5 14 -10 30 -10 17 0 30 5 30 10 0 6 -13 10 -30 10
-16 0 -30 -4 -30 -10z"/>
<path d="M615 1040 c3 -5 17 -10 30 -10 13 0 27 5 30 10 4 6 -8 10 -30 10 -22
0 -34 -4 -30 -10z"/>
<path d="M1755 1040 c3 -5 17 -10 30 -10 13 0 27 5 30 10 4 6 -8 10 -30 10
-22 0 -34 -4 -30 -10z"/>
<path d="M2125 1040 c3 -5 17 -10 31 -10 13 0 24 5 24 10 0 6 -14 10 -31 10
-17 0 -28 -4 -24 -10z"/>
<path d="M2905 1040 c3 -5 19 -10 36 -10 16 0 29 5 29 10 0 6 -16 10 -36 10
-21 0 -33 -4 -29 -10z"/>
<path d="M3385 1040 c3 -5 17 -10 30 -10 13 0 27 5 30 10 4 6 -8 10 -30 10
-22 0 -34 -4 -30 -10z"/>
<path d="M4700 1040 c0 -5 14 -10 30 -10 17 0 30 5 30 10 0 6 -13 10 -30 10
-16 0 -30 -4 -30 -10z"/>
<path d="M3855 998 c-24 -51 -50 -60 -66 -24 -10 21 -19 26 -46 26 -20 0 -32
-4 -28 -10 3 -5 19 -10 35 -10 22 0 29 -6 34 -26 5 -20 12 -25 33 -22 20 2 30
14 49 56 27 62 17 71 -11 10z"/>
<path d="M1980 773 c-88 -8 -120 -15 -120 -25 0 -8 28 -9 88 -5 91 6 122 13
122 28 0 9 -19 9 -90 2z"/>
<path d="M2570 773 c-88 -8 -120 -15 -120 -25 0 -8 28 -9 88 -5 91 6 122 13
122 28 0 9 -19 9 -90 2z"/>
<path d="M3742 771 c-61 -16 -112 -59 -139 -117 -14 -31 -23 -57 -21 -60 3 -2
15 19 28 46 13 28 30 50 38 50 9 0 12 3 8 7 -3 4 19 17 50 31 42 17 75 23 126
23 80 0 101 -5 143 -35 17 -11 32 -20 35 -19 3 1 13 -12 23 -30 14 -26 16 -27
11 -7 -20 74 -83 112 -194 116 -41 2 -90 -1 -108 -5z"/>
<path d="M4948 764 c-60 -18 -121 -85 -137 -150 -7 -26 -10 -49 -7 -51 3 -3 8
11 11 31 4 19 13 40 21 47 8 6 12 15 9 19 -8 13 75 69 119 81 44 12 146 14
178 3 12 -4 43 -19 68 -35 44 -27 62 -53 84 -123 4 -10 9 -17 11 -14 13 13
-32 106 -70 143 -63 63 -177 83 -287 49z"/>
<path d="M750 760 c0 -5 10 -11 23 -11 17 -1 16 -3 -8 -9 l-30 -7 37 -16 c48
-22 51 -21 45 3 -5 18 0 20 49 20 30 0 57 1 60 3 6 2 150 -387 156 -421 2 -9
6 -19 9 -22 3 -3 16 -34 28 -70 13 -36 25 -69 27 -75 3 -6 -17 -10 -46 -10
-27 0 -50 0 -50 1 0 0 -14 39 -31 85 -17 46 -31 90 -32 97 0 9 -31 12 -119 12
-65 0 -117 -3 -116 -7 2 -5 -3 -21 -9 -38 -6 -16 -21 -57 -33 -90 -19 -55 -23
-60 -50 -60 -17 0 -30 2 -30 5 0 3 18 51 39 108 22 56 36 102 32 102 -9 0 -81
-199 -81 -223 0 -15 7 -18 37 -15 36 3 37 3 68 93 l32 90 111 3 110 3 18 -48
c10 -26 25 -68 35 -93 l17 -45 56 -3 c47 -3 56 0 56 14 0 9 -50 155 -112 325
l-112 309 -93 0 c-55 0 -93 -4 -93 -10z"/>
<path d="M1240 761 c0 -5 10 -12 23 -14 l22 -4 -22 -2 c-37 -2 -26 -18 22 -33
36 -12 45 -13 45 -2 0 7 -8 18 -17 24 -13 7 27 10 145 9 89 -1 162 -6 162 -10
0 -5 6 -9 13 -9 15 0 82 -47 82 -58 0 -4 6 -16 13 -27 12 -18 13 -17 7 10 -8
45 -73 99 -135 113 -61 14 -360 16 -360 3z"/>
<path d="M2810 761 c0 -5 10 -12 23 -14 l22 -4 -22 -2 c-36 -2 -27 -19 17 -31
22 -6 40 -16 40 -23 0 -8 4 -7 9 2 7 11 4 20 -10 32 -19 17 -17 18 55 21 56 2
76 0 76 -9 0 -7 3 -13 8 -13 4 0 23 -30 42 -67 19 -37 43 -76 53 -87 9 -11 17
-28 17 -38 0 -10 4 -18 8 -18 5 0 20 -21 33 -47 13 -27 26 -50 30 -53 13 -12
73 -126 71 -135 -2 -6 1 -5 8 1 8 8 -28 77 -129 250 l-140 239 -105 3 c-63 2
-106 -1 -106 -7z"/>
<path d="M3295 761 c-3 -5 4 -12 15 -16 23 -7 60 2 60 16 0 12 -67 12 -75 0z"/>
<path d="M4200 761 c0 -5 7 -12 16 -15 20 -8 438 -8 458 0 48 18 -7 24 -229
24 -137 0 -245 -4 -245 -9z"/>
<path d="M5430 760 c0 -5 10 -10 23 -10 17 0 19 -2 7 -9 -8 -6 -18 -7 -22 -5
-4 3 -8 1 -8 -5 0 -6 18 -15 39 -21 22 -6 42 -16 44 -23 3 -6 6 -2 6 10 1 12
-7 27 -16 32 -14 8 0 10 52 11 74 0 83 -3 102 -35 6 -11 48 -82 92 -158 45
-75 81 -142 81 -147 0 -6 4 -10 8 -10 5 0 17 -19 28 -42 18 -43 42 -74 49 -67
2 2 -20 45 -49 94 -29 50 -92 159 -141 243 l-88 152 -103 0 c-63 0 -104 -4
-104 -10z"/>
<path d="M5910 761 c0 -14 37 -23 60 -16 34 11 22 25 -20 25 -22 0 -40 -4 -40
-9z"/>
<path d="M1860 719 c0 -4 15 -11 33 -14 17 -4 37 -11 43 -16 8 -6 14 -4 18 6
4 11 -3 19 -19 25 -28 11 -75 10 -75 -1z"/>
<path d="M2450 719 c0 -5 16 -11 35 -15 19 -3 38 -10 41 -15 10 -17 22 -9 17
10 -6 25 -93 43 -93 20z"/>
<path d="M3761 716 c-13 -7 -32 -31 -42 -52 -25 -53 -24 -67 2 -24 12 19 29
40 38 47 51 37 132 15 153 -43 12 -34 12 -34 75 -34 63 0 84 14 38 26 -14 3
-41 4 -61 2 -34 -4 -37 -2 -51 35 -22 55 -94 75 -152 43z"/>
<path d="M4989 718 c-27 -22 -69 -91 -69 -113 1 -14 6 -9 20 19 28 55 38 65
80 76 62 17 109 -5 143 -65 15 -28 25 -39 21 -25 -3 14 -7 29 -8 35 0 5 -7 16
-14 23 -7 8 -9 19 -5 25 3 7 3 9 -2 5 -4 -4 -13 0 -20 9 -16 22 -123 30 -146
11z"/>
<path d="M1445 699 c-4 -11 -4 -23 -1 -26 3 -4 6 -1 6 5 0 8 19 12 54 12 56 0
106 -26 106 -56 0 -8 4 -14 9 -14 5 0 4 16 -2 36 -13 44 -49 64 -116 64 -41 0
-51 -3 -56 -21z"/>
<path d="M4260 700 c-11 -11 -20 -30 -20 -42 0 -23 1 -22 13 2 11 22 20 25 75
28 46 2 62 7 62 17 0 25 -105 20 -130 -5z"/>
<path d="M4500 705 c8 -9 30 -15 59 -15 54 0 66 -7 80 -40 7 -19 10 -20 10 -7
1 21 -17 59 -33 69 -6 4 -37 8 -70 8 -51 0 -57 -2 -46 -15z"/>
<path d="M761 542 c-70 -192 -66 -179 -54 -167 12 13 117 304 111 310 -2 2
-28 -62 -57 -143z"/>
<path d="M2970 635 c0 -3 37 -69 83 -148 46 -78 112 -193 148 -254 l64 -113
53 0 c28 0 52 4 52 10 0 13 -44 23 -75 18 -21 -4 -29 2 -52 41 -15 25 -26 49
-25 54 1 4 -2 7 -6 7 -10 0 -37 50 -34 63 1 4 -2 7 -6 7 -8 0 -36 51 -32 59 1
2 -3 7 -8 10 -13 8 -135 213 -135 228 0 11 -27 28 -27 18z"/>
<path d="M5590 633 c0 -4 66 -121 147 -260 l148 -253 52 0 c51 0 69 12 37 24
-9 3 -33 6 -55 6 -34 0 -42 4 -52 28 -7 15 -24 45 -37 67 -14 22 -24 43 -22
47 1 5 -2 8 -8 8 -6 0 -10 7 -10 15 0 8 -5 15 -12 15 -6 0 -9 3 -5 6 3 3 -2
14 -11 25 -9 10 -33 49 -52 86 -19 37 -38 70 -41 73 -3 3 -20 31 -38 63 -30
53 -41 66 -41 50z"/>
<path d="M4199 619 c-10 -6 -7 -9 14 -9 29 0 35 5 14 13 -8 3 -20 1 -28 -4z"/>
<path d="M834 542 c-16 -44 -31 -79 -34 -77 -3 2 -6 -4 -7 -13 -4 -48 -11 -75
-24 -83 -9 -5 27 -9 94 -9 83 0 106 3 101 12 -5 7 -9 19 -9 28 -2 18 -75 202
-85 213 -4 5 -21 -27 -36 -71z m71 -37 c20 -49 39 -96 42 -102 4 -10 -15 -13
-76 -13 -45 0 -81 2 -81 5 0 3 10 31 23 63 13 31 29 76 37 100 7 23 14 41 16
40 1 -2 19 -43 39 -93z"/>
<path d="M4650 610 c0 -5 9 -10 20 -10 11 0 20 5 20 10 0 6 -9 10 -20 10 -11
0 -20 -4 -20 -10z"/>
<path d="M1605 534 c-20 -32 -72 -54 -124 -54 -27 0 -41 -5 -45 -16 -6 -15 1
-16 60 -11 80 8 106 23 121 71 13 43 11 45 -12 10z"/>
<path d="M1716 516 c-15 -24 -54 -47 -103 -61 l-23 -6 27 -52 c15 -29 27 -54
28 -57 0 -3 8 -16 17 -30 22 -35 97 -165 95 -165 -1 -1 -27 1 -58 3 -52 3 -57
6 -75 40 -10 20 -18 40 -17 44 2 4 -1 8 -5 8 -10 0 -37 50 -34 63 1 4 -2 7 -6
7 -5 0 -22 27 -38 59 -27 55 -32 60 -62 60 -20 1 -31 -3 -27 -9 3 -5 16 -10
28 -10 18 -1 38 -28 102 -143 l80 -142 63 -3 c50 -2 62 0 62 12 0 9 -34 76
-76 151 -42 75 -75 137 -73 138 2 1 21 11 42 21 20 11 47 35 58 53 24 39 20
56 -5 19z"/>
<path d="M3850 490 c8 -5 53 -10 100 -10 47 0 92 5 100 10 10 7 -22 10 -100
10 -78 0 -110 -3 -100 -10z"/>
<path d="M3844 461 c3 -4 19 -11 35 -14 16 -3 36 -13 45 -22 18 -19 21 -4 6
26 -8 14 -21 19 -51 19 -22 0 -38 -4 -35 -9z"/>
<path d="M3573 328 c3 -9 11 -34 18 -56 16 -53 61 -107 112 -135 35 -18 58
-22 142 -21 113 0 234 27 202 46 -12 6 -30 5 -55 -4 -21 -7 -83 -13 -147 -13
-91 0 -115 3 -137 19 -16 10 -28 15 -28 12 0 -4 -6 -1 -14 6 -8 7 -12 16 -9
21 2 4 -1 6 -7 5 -14 -3 -59 77 -60 104 0 9 -5 20 -12 24 -7 5 -9 2 -5 -8z"/>
<path d="M3695 310 c15 -59 52 -115 85 -132 53 -27 175 -22 164 7 -4 8 -16 10
-42 5 -88 -16 -144 12 -185 90 -16 30 -25 44 -22 30z"/>
<path d="M6140 320 c0 -6 32 -10 75 -10 43 0 75 4 75 10 0 6 -32 10 -75 10
-43 0 -75 -4 -75 -10z"/>
<path d="M6315 320 c3 -5 16 -10 28 -10 19 0 27 -12 47 -65 13 -36 27 -65 30
-65 3 0 17 29 30 65 20 54 28 65 47 65 13 0 23 5 23 11 0 6 -12 9 -27 7 -23
-2 -31 -12 -48 -55 -11 -29 -23 -53 -26 -53 -4 0 -12 15 -19 33 -29 77 -29 77
-60 77 -18 0 -29 -4 -25 -10z"/>
<path d="M4807 295 c18 -88 82 -157 163 -174 157 -34 275 17 320 137 24 63 19
68 -9 10 -41 -88 -92 -120 -202 -126 -76 -4 -195 20 -184 38 2 4 -6 12 -18 17
-20 10 -34 32 -65 103 -11 24 -11 24 -5 -5z"/>
<path d="M4920 297 c0 -34 50 -117 78 -128 48 -19 118 -6 149 27 15 16 26 29
24 29 -1 0 2 13 8 28 18 47 12 55 -8 10 -25 -53 -60 -76 -116 -75 -55 0 -88
24 -114 82 -11 25 -20 37 -21 27z"/>
<path d="M6140 290 c0 -5 14 -10 30 -10 17 0 30 5 30 10 0 6 -13 10 -30 10
-16 0 -30 -4 -30 -10z"/>
<path d="M6230 290 c0 -5 14 -10 30 -10 17 0 30 5 30 10 0 6 -13 10 -30 10
-16 0 -30 -4 -30 -10z"/>
<path d="M6351 283 c-1 -6 11 -44 25 -82 36 -96 53 -95 89 4 16 42 26 78 23
81 -3 2 -16 -24 -28 -58 -13 -35 -27 -67 -32 -72 -9 -11 -37 20 -38 44 -2 20
-38 98 -39 83z"/>
<path d="M2300 272 c0 -10 36 -9 46 1 4 4 -5 7 -19 7 -15 0 -27 -4 -27 -8z"/>
<path d="M2282 220 c-11 -18 -23 -20 -112 -20 -82 0 -100 -3 -100 -15 0 -12
17 -15 93 -15 100 1 130 11 135 48 4 27 0 28 -16 2z"/>
<path d="M6510 169 c0 -7 -8 -18 -17 -25 -16 -12 -15 -13 12 -13 17 0 25 3 19
5 -7 3 -10 14 -7 24 3 11 3 20 -1 20 -3 0 -6 -5 -6 -11z"/>
<path d="M1332 143 c-26 -10 2 -23 53 -23 54 0 79 12 49 24 -18 7 -83 7 -102
-1z"/>
<path d="M1963 143 c-42 -17 8 -23 182 -23 176 0 225 6 179 24 -19 7 -343 7
-361 -1z"/>
<path d="M2553 143 c-31 -12 -8 -23 47 -23 57 0 78 11 44 24 -18 7 -73 7 -91
-1z"/>
<path d="M2913 143 c-27 -10 -11 -23 27 -23 40 0 53 13 24 24 -18 7 -33 7 -51
-1z"/>
<path d="M4393 143 c-7 -2 -13 -9 -13 -14 0 -12 117 -12 124 0 10 16 -78 28
-111 14z"/>
<path d="M5533 143 c-25 -10 -12 -23 21 -23 38 0 55 14 30 24 -18 7 -33 7 -51
-1z"/>
<path d="M6195 140 c-4 -6 5 -10 20 -10 15 0 24 4 20 10 -3 6 -12 10 -20 10
-8 0 -17 -4 -20 -10z"/>
<path d="M6315 140 c-4 -6 5 -10 20 -10 15 0 24 4 20 10 -3 6 -12 10 -20 10
-8 0 -17 -4 -20 -10z"/>
</g>
</svg>
